; NON-PLATED HOLES START AT T1
; THROUGH (PLATED) HOLES START AT T100
M48
INCH
T100C0.038194
T101C0.030000
T102C0.038000
T103C0.035000
T104C0.015748
T105C0.035050
%
T100
X027871Y018838
X027871Y016877
X028065Y010131
X027871Y012877
X027871Y019877
X030065Y010131
X027871Y013877
X032065Y010131
X029065Y010131
X027871Y017877
X031065Y010131
X033064Y010131
X027871Y015877
X027871Y014878
X027871Y020878
T101
X017063Y015631
X022565Y015133
X022565Y014131
X020565Y015133
X019567Y007131
X020565Y014131
X018565Y007131
X018065Y015631
T102
X031565Y001131
X030565Y007136
X032565Y007136
X028565Y001131
X027565Y007136
X028565Y007136
X031565Y007136
X032565Y001131
X029565Y001131
X029565Y007136
X026565Y001131
X027565Y001131
X026565Y007136
X030565Y001131
T103
X018565Y009631
X018565Y012631
X018565Y014631
X019565Y012631
X021565Y012631
X024565Y018631
X022565Y020131
X014565Y014631
X022565Y016131
X019565Y009631
X024565Y014631
X021565Y009631
X020565Y012631
X020565Y009631
T104
X007065Y013131
X008065Y013131
X014565Y000631
X009065Y004131
X018565Y016631
X007065Y020131
X003565Y004631
X013565Y003631
X016065Y004631
X012065Y009131
X011065Y002631
X023565Y010631
X012565Y013131
X015065Y008131
X005065Y002631
X023565Y007631
X014565Y006631
X009565Y020131
X016065Y009131
T105
X000832Y006319
X010846Y010324
X000832Y005317
X000832Y011326
X010846Y006319
X000832Y016333
X000832Y004316
X000832Y018336
X000832Y013329
X010846Y015332
X010846Y004316
X000832Y012327
X010846Y012327
X010846Y011326
X000832Y017335
X010846Y008322
X000832Y009323
X010846Y014330
X000832Y010324
X000832Y015332
X010846Y009323
X010846Y005317
X010846Y007320
X000832Y007320
X010846Y017335
X010846Y013329
X010846Y016333
X010846Y018336
X000832Y014330
X000832Y008322
T00
M30
