G04 MADE WITH FRITZING*
G04 WWW.FRITZING.ORG*
G04 DOUBLE SIDED*
G04 HOLES PLATED*
G04 CONTOUR ON CENTER OF CONTOUR VECTOR*
%ASAXBY*%
%FSLAX23Y23*%
%MOIN*%
%OFA0B0*%
%SFA1.0B1.0*%
%ADD10C,0.049370*%
%ADD11C,0.085000*%
%ADD12C,0.080000*%
%ADD13C,0.088000*%
%ADD14C,0.082917*%
%ADD15R,0.088704X0.149814*%
%ADD16R,0.183333X0.077778*%
%ADD17R,0.154444X0.160000*%
%ADD18R,0.172222X0.077778*%
%ADD19C,0.030000*%
%ADD20R,0.001000X0.001000*%
%LNMASK1*%
G90*
G70*
G54D10*
X1607Y463D03*
X1457Y63D03*
X507Y263D03*
X907Y413D03*
X1107Y263D03*
X707Y2013D03*
X957Y2013D03*
X707Y1313D03*
X807Y1313D03*
G54D11*
X1857Y963D03*
X1857Y1263D03*
X1957Y963D03*
X1957Y1263D03*
X2057Y963D03*
X2057Y1263D03*
X2157Y963D03*
X2157Y1263D03*
G54D12*
X1857Y713D03*
X1957Y713D03*
G54D11*
X1457Y1463D03*
X1857Y1463D03*
G54D12*
X1807Y1563D03*
X1706Y1563D03*
X2057Y1413D03*
X2057Y1513D03*
X2257Y1413D03*
X2257Y1513D03*
G54D10*
X1857Y1663D03*
G54D11*
X2257Y2013D03*
X2257Y1613D03*
X2457Y1863D03*
X2457Y1463D03*
G54D10*
X1457Y663D03*
X357Y463D03*
X1257Y1313D03*
X1357Y363D03*
X2357Y1063D03*
X2357Y763D03*
X1507Y813D03*
X1607Y913D03*
X1207Y913D03*
G54D13*
X3257Y714D03*
X3157Y714D03*
X3057Y714D03*
X2957Y714D03*
X2857Y714D03*
X2757Y714D03*
X2657Y714D03*
X2657Y113D03*
X2757Y113D03*
X2857Y113D03*
X2957Y113D03*
X3057Y113D03*
X3157Y113D03*
X3257Y113D03*
G54D14*
X2787Y2088D03*
X2907Y1013D03*
X2807Y1013D03*
X3007Y1013D03*
X3107Y1013D03*
X3207Y1013D03*
X3306Y1013D03*
X2787Y1288D03*
X2787Y1388D03*
X2787Y1488D03*
X2787Y1588D03*
X2787Y1688D03*
X2787Y1788D03*
X2787Y1884D03*
X2787Y1988D03*
G54D15*
X1907Y2141D03*
X1798Y2141D03*
X1692Y2142D03*
G54D16*
X3137Y904D03*
G54D17*
X1607Y213D03*
G54D18*
X2892Y904D03*
G54D17*
X1357Y213D03*
G54D19*
G36*
X1829Y991D02*
X1884Y991D01*
X1884Y936D01*
X1829Y936D01*
X1829Y991D01*
G37*
D02*
G54D20*
X77Y1875D02*
X91Y1875D01*
X1078Y1875D02*
X1092Y1875D01*
X72Y1874D02*
X95Y1874D01*
X1074Y1874D02*
X1096Y1874D01*
X69Y1873D02*
X98Y1873D01*
X1071Y1873D02*
X1099Y1873D01*
X67Y1872D02*
X101Y1872D01*
X1068Y1872D02*
X1102Y1872D01*
X65Y1871D02*
X103Y1871D01*
X1066Y1871D02*
X1104Y1871D01*
X63Y1870D02*
X104Y1870D01*
X1064Y1870D02*
X1106Y1870D01*
X61Y1869D02*
X106Y1869D01*
X1063Y1869D02*
X1107Y1869D01*
X60Y1868D02*
X107Y1868D01*
X1061Y1868D02*
X1109Y1868D01*
X59Y1867D02*
X109Y1867D01*
X1060Y1867D02*
X1110Y1867D01*
X57Y1866D02*
X110Y1866D01*
X1059Y1866D02*
X1111Y1866D01*
X56Y1865D02*
X111Y1865D01*
X1057Y1865D02*
X1112Y1865D01*
X55Y1864D02*
X112Y1864D01*
X1056Y1864D02*
X1114Y1864D01*
X54Y1863D02*
X113Y1863D01*
X1055Y1863D02*
X1115Y1863D01*
X53Y1862D02*
X114Y1862D01*
X1054Y1862D02*
X1115Y1862D01*
X52Y1861D02*
X115Y1861D01*
X1053Y1861D02*
X1116Y1861D01*
X51Y1860D02*
X116Y1860D01*
X1053Y1860D02*
X1117Y1860D01*
X51Y1859D02*
X117Y1859D01*
X1052Y1859D02*
X1118Y1859D01*
X50Y1858D02*
X117Y1858D01*
X1051Y1858D02*
X1119Y1858D01*
X49Y1857D02*
X118Y1857D01*
X1051Y1857D02*
X1119Y1857D01*
X49Y1856D02*
X119Y1856D01*
X1050Y1856D02*
X1120Y1856D01*
X48Y1855D02*
X119Y1855D01*
X1049Y1855D02*
X1121Y1855D01*
X47Y1854D02*
X120Y1854D01*
X1049Y1854D02*
X1121Y1854D01*
X47Y1853D02*
X121Y1853D01*
X1048Y1853D02*
X1122Y1853D01*
X46Y1852D02*
X121Y1852D01*
X1048Y1852D02*
X1122Y1852D01*
X46Y1851D02*
X122Y1851D01*
X1047Y1851D02*
X1123Y1851D01*
X45Y1850D02*
X122Y1850D01*
X1047Y1850D02*
X1123Y1850D01*
X45Y1849D02*
X122Y1849D01*
X1046Y1849D02*
X1124Y1849D01*
X45Y1848D02*
X123Y1848D01*
X1046Y1848D02*
X1124Y1848D01*
X44Y1847D02*
X123Y1847D01*
X1046Y1847D02*
X1124Y1847D01*
X44Y1846D02*
X123Y1846D01*
X1045Y1846D02*
X1125Y1846D01*
X44Y1845D02*
X124Y1845D01*
X1045Y1845D02*
X1125Y1845D01*
X44Y1844D02*
X124Y1844D01*
X1045Y1844D02*
X1125Y1844D01*
X43Y1843D02*
X124Y1843D01*
X1045Y1843D02*
X1125Y1843D01*
X43Y1842D02*
X124Y1842D01*
X1044Y1842D02*
X1126Y1842D01*
X43Y1841D02*
X125Y1841D01*
X1044Y1841D02*
X1126Y1841D01*
X43Y1840D02*
X125Y1840D01*
X1044Y1840D02*
X1126Y1840D01*
X43Y1839D02*
X125Y1839D01*
X1044Y1839D02*
X1126Y1839D01*
X42Y1838D02*
X125Y1838D01*
X1044Y1838D02*
X1126Y1838D01*
X42Y1837D02*
X125Y1837D01*
X1044Y1837D02*
X1126Y1837D01*
X42Y1836D02*
X125Y1836D01*
X1044Y1836D02*
X1126Y1836D01*
X42Y1835D02*
X125Y1835D01*
X1043Y1835D02*
X1126Y1835D01*
X42Y1834D02*
X125Y1834D01*
X1043Y1834D02*
X1126Y1834D01*
X42Y1833D02*
X125Y1833D01*
X1043Y1833D02*
X1126Y1833D01*
X42Y1832D02*
X125Y1832D01*
X1044Y1832D02*
X1126Y1832D01*
X42Y1831D02*
X125Y1831D01*
X1044Y1831D02*
X1126Y1831D01*
X42Y1830D02*
X125Y1830D01*
X1044Y1830D02*
X1126Y1830D01*
X43Y1829D02*
X125Y1829D01*
X1044Y1829D02*
X1126Y1829D01*
X43Y1828D02*
X125Y1828D01*
X1044Y1828D02*
X1126Y1828D01*
X43Y1827D02*
X125Y1827D01*
X1044Y1827D02*
X1126Y1827D01*
X43Y1826D02*
X124Y1826D01*
X1044Y1826D02*
X1126Y1826D01*
X43Y1825D02*
X124Y1825D01*
X1044Y1825D02*
X1125Y1825D01*
X43Y1824D02*
X124Y1824D01*
X1045Y1824D02*
X1125Y1824D01*
X44Y1823D02*
X124Y1823D01*
X1045Y1823D02*
X1125Y1823D01*
X44Y1822D02*
X124Y1822D01*
X1045Y1822D02*
X1125Y1822D01*
X44Y1821D02*
X123Y1821D01*
X1045Y1821D02*
X1124Y1821D01*
X45Y1820D02*
X123Y1820D01*
X1046Y1820D02*
X1124Y1820D01*
X45Y1819D02*
X123Y1819D01*
X1046Y1819D02*
X1124Y1819D01*
X45Y1818D02*
X122Y1818D01*
X1046Y1818D02*
X1123Y1818D01*
X46Y1817D02*
X122Y1817D01*
X1047Y1817D02*
X1123Y1817D01*
X46Y1816D02*
X121Y1816D01*
X1047Y1816D02*
X1123Y1816D01*
X47Y1815D02*
X121Y1815D01*
X1048Y1815D02*
X1122Y1815D01*
X47Y1814D02*
X120Y1814D01*
X1048Y1814D02*
X1122Y1814D01*
X48Y1813D02*
X120Y1813D01*
X1049Y1813D02*
X1121Y1813D01*
X48Y1812D02*
X119Y1812D01*
X1050Y1812D02*
X1120Y1812D01*
X49Y1811D02*
X118Y1811D01*
X1050Y1811D02*
X1120Y1811D01*
X50Y1810D02*
X118Y1810D01*
X1051Y1810D02*
X1119Y1810D01*
X50Y1809D02*
X117Y1809D01*
X1052Y1809D02*
X1118Y1809D01*
X51Y1808D02*
X116Y1808D01*
X1052Y1808D02*
X1118Y1808D01*
X52Y1807D02*
X116Y1807D01*
X1053Y1807D02*
X1117Y1807D01*
X53Y1806D02*
X115Y1806D01*
X1054Y1806D02*
X1116Y1806D01*
X54Y1805D02*
X114Y1805D01*
X1055Y1805D02*
X1115Y1805D01*
X55Y1804D02*
X113Y1804D01*
X1056Y1804D02*
X1114Y1804D01*
X56Y1803D02*
X112Y1803D01*
X1057Y1803D02*
X1113Y1803D01*
X57Y1802D02*
X111Y1802D01*
X1058Y1802D02*
X1112Y1802D01*
X58Y1801D02*
X109Y1801D01*
X1059Y1801D02*
X1111Y1801D01*
X59Y1800D02*
X108Y1800D01*
X1061Y1800D02*
X1109Y1800D01*
X61Y1799D02*
X107Y1799D01*
X1062Y1799D02*
X1108Y1799D01*
X62Y1798D02*
X105Y1798D01*
X1064Y1798D02*
X1106Y1798D01*
X64Y1797D02*
X104Y1797D01*
X1065Y1797D02*
X1105Y1797D01*
X66Y1796D02*
X102Y1796D01*
X1067Y1796D02*
X1103Y1796D01*
X68Y1795D02*
X100Y1795D01*
X1069Y1795D02*
X1101Y1795D01*
X71Y1794D02*
X97Y1794D01*
X1072Y1794D02*
X1098Y1794D01*
X74Y1793D02*
X93Y1793D01*
X1076Y1793D02*
X1094Y1793D01*
X80Y1792D02*
X88Y1792D01*
X1081Y1792D02*
X1089Y1792D01*
X77Y1775D02*
X90Y1775D01*
X1079Y1775D02*
X1091Y1775D01*
X73Y1774D02*
X95Y1774D01*
X1074Y1774D02*
X1096Y1774D01*
X70Y1773D02*
X98Y1773D01*
X1071Y1773D02*
X1099Y1773D01*
X67Y1772D02*
X100Y1772D01*
X1068Y1772D02*
X1102Y1772D01*
X65Y1771D02*
X102Y1771D01*
X1066Y1771D02*
X1104Y1771D01*
X63Y1770D02*
X104Y1770D01*
X1065Y1770D02*
X1105Y1770D01*
X62Y1769D02*
X106Y1769D01*
X1063Y1769D02*
X1107Y1769D01*
X60Y1768D02*
X107Y1768D01*
X1061Y1768D02*
X1109Y1768D01*
X59Y1767D02*
X109Y1767D01*
X1060Y1767D02*
X1110Y1767D01*
X57Y1766D02*
X110Y1766D01*
X1059Y1766D02*
X1111Y1766D01*
X56Y1765D02*
X111Y1765D01*
X1058Y1765D02*
X1112Y1765D01*
X55Y1764D02*
X112Y1764D01*
X1056Y1764D02*
X1113Y1764D01*
X54Y1763D02*
X113Y1763D01*
X1055Y1763D02*
X1115Y1763D01*
X53Y1762D02*
X114Y1762D01*
X1055Y1762D02*
X1115Y1762D01*
X52Y1761D02*
X115Y1761D01*
X1054Y1761D02*
X1116Y1761D01*
X52Y1760D02*
X116Y1760D01*
X1053Y1760D02*
X1117Y1760D01*
X51Y1759D02*
X117Y1759D01*
X1052Y1759D02*
X1118Y1759D01*
X50Y1758D02*
X117Y1758D01*
X1051Y1758D02*
X1119Y1758D01*
X49Y1757D02*
X118Y1757D01*
X1051Y1757D02*
X1119Y1757D01*
X49Y1756D02*
X119Y1756D01*
X1050Y1756D02*
X1120Y1756D01*
X48Y1755D02*
X119Y1755D01*
X1049Y1755D02*
X1121Y1755D01*
X47Y1754D02*
X120Y1754D01*
X1049Y1754D02*
X1121Y1754D01*
X47Y1753D02*
X120Y1753D01*
X1048Y1753D02*
X1122Y1753D01*
X46Y1752D02*
X121Y1752D01*
X1048Y1752D02*
X1122Y1752D01*
X46Y1751D02*
X121Y1751D01*
X1047Y1751D02*
X1123Y1751D01*
X45Y1750D02*
X122Y1750D01*
X1047Y1750D02*
X1123Y1750D01*
X45Y1749D02*
X122Y1749D01*
X1046Y1749D02*
X1124Y1749D01*
X45Y1748D02*
X123Y1748D01*
X1046Y1748D02*
X1124Y1748D01*
X44Y1747D02*
X123Y1747D01*
X1046Y1747D02*
X1124Y1747D01*
X44Y1746D02*
X123Y1746D01*
X1045Y1746D02*
X1125Y1746D01*
X44Y1745D02*
X124Y1745D01*
X1045Y1745D02*
X1125Y1745D01*
X44Y1744D02*
X124Y1744D01*
X1045Y1744D02*
X1125Y1744D01*
X43Y1743D02*
X124Y1743D01*
X1045Y1743D02*
X1125Y1743D01*
X43Y1742D02*
X124Y1742D01*
X1044Y1742D02*
X1126Y1742D01*
X43Y1741D02*
X125Y1741D01*
X1044Y1741D02*
X1126Y1741D01*
X43Y1740D02*
X125Y1740D01*
X1044Y1740D02*
X1126Y1740D01*
X43Y1739D02*
X125Y1739D01*
X1044Y1739D02*
X1126Y1739D01*
X42Y1738D02*
X125Y1738D01*
X1044Y1738D02*
X1126Y1738D01*
X42Y1737D02*
X125Y1737D01*
X1044Y1737D02*
X1126Y1737D01*
X42Y1736D02*
X125Y1736D01*
X1044Y1736D02*
X1126Y1736D01*
X42Y1735D02*
X125Y1735D01*
X1043Y1735D02*
X1126Y1735D01*
X42Y1734D02*
X125Y1734D01*
X1043Y1734D02*
X1126Y1734D01*
X42Y1733D02*
X125Y1733D01*
X1043Y1733D02*
X1126Y1733D01*
X42Y1732D02*
X125Y1732D01*
X1043Y1732D02*
X1126Y1732D01*
X42Y1731D02*
X125Y1731D01*
X1044Y1731D02*
X1126Y1731D01*
X42Y1730D02*
X125Y1730D01*
X1044Y1730D02*
X1126Y1730D01*
X42Y1729D02*
X125Y1729D01*
X1044Y1729D02*
X1126Y1729D01*
X43Y1728D02*
X125Y1728D01*
X1044Y1728D02*
X1126Y1728D01*
X43Y1727D02*
X125Y1727D01*
X1044Y1727D02*
X1126Y1727D01*
X43Y1726D02*
X124Y1726D01*
X1044Y1726D02*
X1126Y1726D01*
X43Y1725D02*
X124Y1725D01*
X1044Y1725D02*
X1126Y1725D01*
X43Y1724D02*
X124Y1724D01*
X1045Y1724D02*
X1125Y1724D01*
X44Y1723D02*
X124Y1723D01*
X1045Y1723D02*
X1125Y1723D01*
X44Y1722D02*
X124Y1722D01*
X1045Y1722D02*
X1125Y1722D01*
X44Y1721D02*
X123Y1721D01*
X1045Y1721D02*
X1125Y1721D01*
X44Y1720D02*
X123Y1720D01*
X1046Y1720D02*
X1124Y1720D01*
X45Y1719D02*
X123Y1719D01*
X1046Y1719D02*
X1124Y1719D01*
X45Y1718D02*
X122Y1718D01*
X1046Y1718D02*
X1123Y1718D01*
X46Y1717D02*
X122Y1717D01*
X1047Y1717D02*
X1123Y1717D01*
X46Y1716D02*
X121Y1716D01*
X1047Y1716D02*
X1123Y1716D01*
X47Y1715D02*
X121Y1715D01*
X1048Y1715D02*
X1122Y1715D01*
X47Y1714D02*
X120Y1714D01*
X1048Y1714D02*
X1122Y1714D01*
X48Y1713D02*
X120Y1713D01*
X1049Y1713D02*
X1121Y1713D01*
X48Y1712D02*
X119Y1712D01*
X1050Y1712D02*
X1120Y1712D01*
X49Y1711D02*
X119Y1711D01*
X1050Y1711D02*
X1120Y1711D01*
X50Y1710D02*
X118Y1710D01*
X1051Y1710D02*
X1119Y1710D01*
X50Y1709D02*
X117Y1709D01*
X1051Y1709D02*
X1118Y1709D01*
X51Y1708D02*
X116Y1708D01*
X1052Y1708D02*
X1118Y1708D01*
X52Y1707D02*
X116Y1707D01*
X1053Y1707D02*
X1117Y1707D01*
X53Y1706D02*
X115Y1706D01*
X1054Y1706D02*
X1116Y1706D01*
X53Y1705D02*
X114Y1705D01*
X1055Y1705D02*
X1115Y1705D01*
X54Y1704D02*
X113Y1704D01*
X1056Y1704D02*
X1114Y1704D01*
X55Y1703D02*
X112Y1703D01*
X1057Y1703D02*
X1113Y1703D01*
X57Y1702D02*
X111Y1702D01*
X1058Y1702D02*
X1112Y1702D01*
X58Y1701D02*
X110Y1701D01*
X1059Y1701D02*
X1111Y1701D01*
X59Y1700D02*
X108Y1700D01*
X1060Y1700D02*
X1110Y1700D01*
X61Y1699D02*
X107Y1699D01*
X1062Y1699D02*
X1108Y1699D01*
X62Y1698D02*
X105Y1698D01*
X1063Y1698D02*
X1107Y1698D01*
X64Y1697D02*
X104Y1697D01*
X1065Y1697D02*
X1105Y1697D01*
X66Y1696D02*
X102Y1696D01*
X1067Y1696D02*
X1103Y1696D01*
X68Y1695D02*
X100Y1695D01*
X1069Y1695D02*
X1101Y1695D01*
X70Y1694D02*
X97Y1694D01*
X1072Y1694D02*
X1098Y1694D01*
X74Y1693D02*
X94Y1693D01*
X1075Y1693D02*
X1095Y1693D01*
X79Y1692D02*
X88Y1692D01*
X1080Y1692D02*
X1090Y1692D01*
X78Y1675D02*
X89Y1675D01*
X1079Y1675D02*
X1091Y1675D01*
X73Y1674D02*
X94Y1674D01*
X1075Y1674D02*
X1095Y1674D01*
X70Y1673D02*
X97Y1673D01*
X1071Y1673D02*
X1099Y1673D01*
X67Y1672D02*
X100Y1672D01*
X1069Y1672D02*
X1101Y1672D01*
X65Y1671D02*
X102Y1671D01*
X1067Y1671D02*
X1103Y1671D01*
X63Y1670D02*
X104Y1670D01*
X1065Y1670D02*
X1105Y1670D01*
X62Y1669D02*
X106Y1669D01*
X1063Y1669D02*
X1107Y1669D01*
X60Y1668D02*
X107Y1668D01*
X1062Y1668D02*
X1108Y1668D01*
X59Y1667D02*
X108Y1667D01*
X1060Y1667D02*
X1110Y1667D01*
X58Y1666D02*
X110Y1666D01*
X1059Y1666D02*
X1111Y1666D01*
X56Y1665D02*
X111Y1665D01*
X1058Y1665D02*
X1112Y1665D01*
X55Y1664D02*
X112Y1664D01*
X1057Y1664D02*
X1113Y1664D01*
X54Y1663D02*
X113Y1663D01*
X1056Y1663D02*
X1114Y1663D01*
X53Y1662D02*
X114Y1662D01*
X1055Y1662D02*
X1115Y1662D01*
X52Y1661D02*
X115Y1661D01*
X1054Y1661D02*
X1116Y1661D01*
X52Y1660D02*
X116Y1660D01*
X1053Y1660D02*
X1117Y1660D01*
X51Y1659D02*
X117Y1659D01*
X1052Y1659D02*
X1118Y1659D01*
X50Y1658D02*
X117Y1658D01*
X1051Y1658D02*
X1118Y1658D01*
X49Y1657D02*
X118Y1657D01*
X1051Y1657D02*
X1119Y1657D01*
X49Y1656D02*
X119Y1656D01*
X1050Y1656D02*
X1120Y1656D01*
X48Y1655D02*
X119Y1655D01*
X1049Y1655D02*
X1120Y1655D01*
X48Y1654D02*
X120Y1654D01*
X1049Y1654D02*
X1121Y1654D01*
X47Y1653D02*
X120Y1653D01*
X1048Y1653D02*
X1122Y1653D01*
X47Y1652D02*
X121Y1652D01*
X1048Y1652D02*
X1122Y1652D01*
X46Y1651D02*
X121Y1651D01*
X1047Y1651D02*
X1123Y1651D01*
X46Y1650D02*
X122Y1650D01*
X1047Y1650D02*
X1123Y1650D01*
X45Y1649D02*
X122Y1649D01*
X1046Y1649D02*
X1124Y1649D01*
X45Y1648D02*
X123Y1648D01*
X1046Y1648D02*
X1124Y1648D01*
X44Y1647D02*
X123Y1647D01*
X1046Y1647D02*
X1124Y1647D01*
X44Y1646D02*
X123Y1646D01*
X1045Y1646D02*
X1125Y1646D01*
X44Y1645D02*
X124Y1645D01*
X1045Y1645D02*
X1125Y1645D01*
X44Y1644D02*
X124Y1644D01*
X1045Y1644D02*
X1125Y1644D01*
X43Y1643D02*
X124Y1643D01*
X1045Y1643D02*
X1125Y1643D01*
X43Y1642D02*
X124Y1642D01*
X1044Y1642D02*
X1126Y1642D01*
X43Y1641D02*
X124Y1641D01*
X1044Y1641D02*
X1126Y1641D01*
X43Y1640D02*
X125Y1640D01*
X1044Y1640D02*
X1126Y1640D01*
X43Y1639D02*
X125Y1639D01*
X1044Y1639D02*
X1126Y1639D01*
X42Y1638D02*
X125Y1638D01*
X1044Y1638D02*
X1126Y1638D01*
X42Y1637D02*
X125Y1637D01*
X1044Y1637D02*
X1126Y1637D01*
X42Y1636D02*
X125Y1636D01*
X1044Y1636D02*
X1126Y1636D01*
X42Y1635D02*
X125Y1635D01*
X1043Y1635D02*
X1126Y1635D01*
X42Y1634D02*
X125Y1634D01*
X1043Y1634D02*
X1126Y1634D01*
X42Y1633D02*
X125Y1633D01*
X1043Y1633D02*
X1126Y1633D01*
X42Y1632D02*
X125Y1632D01*
X1043Y1632D02*
X1126Y1632D01*
X42Y1631D02*
X125Y1631D01*
X1044Y1631D02*
X1126Y1631D01*
X42Y1630D02*
X125Y1630D01*
X1044Y1630D02*
X1126Y1630D01*
X42Y1629D02*
X125Y1629D01*
X1044Y1629D02*
X1126Y1629D01*
X43Y1628D02*
X125Y1628D01*
X1044Y1628D02*
X1126Y1628D01*
X43Y1627D02*
X125Y1627D01*
X1044Y1627D02*
X1126Y1627D01*
X43Y1626D02*
X124Y1626D01*
X1044Y1626D02*
X1126Y1626D01*
X43Y1625D02*
X124Y1625D01*
X1044Y1625D02*
X1126Y1625D01*
X43Y1624D02*
X124Y1624D01*
X1045Y1624D02*
X1125Y1624D01*
X44Y1623D02*
X124Y1623D01*
X1045Y1623D02*
X1125Y1623D01*
X44Y1622D02*
X124Y1622D01*
X1045Y1622D02*
X1125Y1622D01*
X44Y1621D02*
X123Y1621D01*
X1045Y1621D02*
X1125Y1621D01*
X44Y1620D02*
X123Y1620D01*
X1046Y1620D02*
X1124Y1620D01*
X45Y1619D02*
X123Y1619D01*
X1046Y1619D02*
X1124Y1619D01*
X45Y1618D02*
X122Y1618D01*
X1046Y1618D02*
X1124Y1618D01*
X46Y1617D02*
X122Y1617D01*
X1047Y1617D02*
X1123Y1617D01*
X46Y1616D02*
X121Y1616D01*
X1047Y1616D02*
X1123Y1616D01*
X47Y1615D02*
X121Y1615D01*
X1048Y1615D02*
X1122Y1615D01*
X47Y1614D02*
X120Y1614D01*
X1048Y1614D02*
X1122Y1614D01*
X48Y1613D02*
X120Y1613D01*
X1049Y1613D02*
X1121Y1613D01*
X48Y1612D02*
X119Y1612D01*
X1049Y1612D02*
X1120Y1612D01*
X49Y1611D02*
X119Y1611D01*
X1050Y1611D02*
X1120Y1611D01*
X49Y1610D02*
X118Y1610D01*
X1051Y1610D02*
X1119Y1610D01*
X50Y1609D02*
X117Y1609D01*
X1051Y1609D02*
X1118Y1609D01*
X51Y1608D02*
X117Y1608D01*
X1052Y1608D02*
X1118Y1608D01*
X52Y1607D02*
X116Y1607D01*
X1053Y1607D02*
X1117Y1607D01*
X52Y1606D02*
X115Y1606D01*
X1054Y1606D02*
X1116Y1606D01*
X53Y1605D02*
X114Y1605D01*
X1055Y1605D02*
X1115Y1605D01*
X54Y1604D02*
X113Y1604D01*
X1056Y1604D02*
X1114Y1604D01*
X55Y1603D02*
X112Y1603D01*
X1057Y1603D02*
X1113Y1603D01*
X56Y1602D02*
X111Y1602D01*
X1058Y1602D02*
X1112Y1602D01*
X58Y1601D02*
X110Y1601D01*
X1059Y1601D02*
X1111Y1601D01*
X59Y1600D02*
X108Y1600D01*
X1060Y1600D02*
X1110Y1600D01*
X60Y1599D02*
X107Y1599D01*
X1062Y1599D02*
X1108Y1599D01*
X62Y1598D02*
X106Y1598D01*
X1063Y1598D02*
X1107Y1598D01*
X64Y1597D02*
X104Y1597D01*
X1065Y1597D02*
X1105Y1597D01*
X65Y1596D02*
X102Y1596D01*
X1067Y1596D02*
X1103Y1596D01*
X67Y1595D02*
X100Y1595D01*
X1069Y1595D02*
X1101Y1595D01*
X70Y1594D02*
X97Y1594D01*
X1071Y1594D02*
X1099Y1594D01*
X73Y1593D02*
X94Y1593D01*
X1075Y1593D02*
X1095Y1593D01*
X78Y1592D02*
X89Y1592D01*
X1079Y1592D02*
X1090Y1592D01*
X79Y1575D02*
X89Y1575D01*
X1080Y1575D02*
X1090Y1575D01*
X74Y1574D02*
X94Y1574D01*
X1075Y1574D02*
X1095Y1574D01*
X70Y1573D02*
X97Y1573D01*
X1072Y1573D02*
X1098Y1573D01*
X68Y1572D02*
X100Y1572D01*
X1069Y1572D02*
X1101Y1572D01*
X66Y1571D02*
X102Y1571D01*
X1067Y1571D02*
X1103Y1571D01*
X64Y1570D02*
X104Y1570D01*
X1065Y1570D02*
X1105Y1570D01*
X62Y1569D02*
X105Y1569D01*
X1063Y1569D02*
X1107Y1569D01*
X60Y1568D02*
X107Y1568D01*
X1062Y1568D02*
X1108Y1568D01*
X59Y1567D02*
X108Y1567D01*
X1060Y1567D02*
X1110Y1567D01*
X58Y1566D02*
X110Y1566D01*
X1059Y1566D02*
X1111Y1566D01*
X57Y1565D02*
X111Y1565D01*
X1058Y1565D02*
X1112Y1565D01*
X55Y1564D02*
X112Y1564D01*
X1057Y1564D02*
X1113Y1564D01*
X54Y1563D02*
X113Y1563D01*
X1056Y1563D02*
X1114Y1563D01*
X53Y1562D02*
X114Y1562D01*
X1055Y1562D02*
X1115Y1562D01*
X53Y1561D02*
X115Y1561D01*
X1054Y1561D02*
X1116Y1561D01*
X52Y1560D02*
X116Y1560D01*
X1053Y1560D02*
X1117Y1560D01*
X51Y1559D02*
X116Y1559D01*
X1052Y1559D02*
X1118Y1559D01*
X50Y1558D02*
X117Y1558D01*
X1051Y1558D02*
X1118Y1558D01*
X50Y1557D02*
X118Y1557D01*
X1051Y1557D02*
X1119Y1557D01*
X49Y1556D02*
X119Y1556D01*
X1050Y1556D02*
X1120Y1556D01*
X48Y1555D02*
X119Y1555D01*
X1050Y1555D02*
X1120Y1555D01*
X48Y1554D02*
X120Y1554D01*
X1049Y1554D02*
X1121Y1554D01*
X47Y1553D02*
X120Y1553D01*
X1048Y1553D02*
X1122Y1553D01*
X47Y1552D02*
X121Y1552D01*
X1048Y1552D02*
X1122Y1552D01*
X46Y1551D02*
X121Y1551D01*
X1047Y1551D02*
X1123Y1551D01*
X46Y1550D02*
X122Y1550D01*
X1047Y1550D02*
X1123Y1550D01*
X45Y1549D02*
X122Y1549D01*
X1046Y1549D02*
X1123Y1549D01*
X45Y1548D02*
X123Y1548D01*
X1046Y1548D02*
X1124Y1548D01*
X45Y1547D02*
X123Y1547D01*
X1046Y1547D02*
X1124Y1547D01*
X44Y1546D02*
X123Y1546D01*
X1045Y1546D02*
X1125Y1546D01*
X44Y1545D02*
X124Y1545D01*
X1045Y1545D02*
X1125Y1545D01*
X44Y1544D02*
X124Y1544D01*
X1045Y1544D02*
X1125Y1544D01*
X43Y1543D02*
X124Y1543D01*
X1045Y1543D02*
X1125Y1543D01*
X43Y1542D02*
X124Y1542D01*
X1044Y1542D02*
X1126Y1542D01*
X43Y1541D02*
X124Y1541D01*
X1044Y1541D02*
X1126Y1541D01*
X43Y1540D02*
X125Y1540D01*
X1044Y1540D02*
X1126Y1540D01*
X43Y1539D02*
X125Y1539D01*
X1044Y1539D02*
X1126Y1539D01*
X42Y1538D02*
X125Y1538D01*
X1044Y1538D02*
X1126Y1538D01*
X42Y1537D02*
X125Y1537D01*
X1044Y1537D02*
X1126Y1537D01*
X42Y1536D02*
X125Y1536D01*
X1044Y1536D02*
X1126Y1536D01*
X42Y1535D02*
X125Y1535D01*
X1043Y1535D02*
X1126Y1535D01*
X42Y1534D02*
X125Y1534D01*
X1043Y1534D02*
X1126Y1534D01*
X42Y1533D02*
X125Y1533D01*
X1043Y1533D02*
X1126Y1533D01*
X42Y1532D02*
X125Y1532D01*
X1043Y1532D02*
X1126Y1532D01*
X42Y1531D02*
X125Y1531D01*
X1044Y1531D02*
X1126Y1531D01*
X42Y1530D02*
X125Y1530D01*
X1044Y1530D02*
X1126Y1530D01*
X42Y1529D02*
X125Y1529D01*
X1044Y1529D02*
X1126Y1529D01*
X43Y1528D02*
X125Y1528D01*
X1044Y1528D02*
X1126Y1528D01*
X43Y1527D02*
X125Y1527D01*
X1044Y1527D02*
X1126Y1527D01*
X43Y1526D02*
X125Y1526D01*
X1044Y1526D02*
X1126Y1526D01*
X43Y1525D02*
X124Y1525D01*
X1044Y1525D02*
X1126Y1525D01*
X43Y1524D02*
X124Y1524D01*
X1045Y1524D02*
X1125Y1524D01*
X44Y1523D02*
X124Y1523D01*
X1045Y1523D02*
X1125Y1523D01*
X44Y1522D02*
X124Y1522D01*
X1045Y1522D02*
X1125Y1522D01*
X44Y1521D02*
X123Y1521D01*
X1045Y1521D02*
X1125Y1521D01*
X44Y1520D02*
X123Y1520D01*
X1046Y1520D02*
X1124Y1520D01*
X45Y1519D02*
X123Y1519D01*
X1046Y1519D02*
X1124Y1519D01*
X45Y1518D02*
X122Y1518D01*
X1046Y1518D02*
X1124Y1518D01*
X46Y1517D02*
X122Y1517D01*
X1047Y1517D02*
X1123Y1517D01*
X46Y1516D02*
X121Y1516D01*
X1047Y1516D02*
X1123Y1516D01*
X46Y1515D02*
X121Y1515D01*
X1048Y1515D02*
X1122Y1515D01*
X47Y1514D02*
X120Y1514D01*
X1048Y1514D02*
X1122Y1514D01*
X48Y1513D02*
X120Y1513D01*
X1049Y1513D02*
X1121Y1513D01*
X48Y1512D02*
X119Y1512D01*
X1049Y1512D02*
X1121Y1512D01*
X49Y1511D02*
X119Y1511D01*
X1050Y1511D02*
X1120Y1511D01*
X49Y1510D02*
X118Y1510D01*
X1051Y1510D02*
X1119Y1510D01*
X50Y1509D02*
X117Y1509D01*
X1051Y1509D02*
X1119Y1509D01*
X51Y1508D02*
X117Y1508D01*
X1052Y1508D02*
X1118Y1508D01*
X52Y1507D02*
X116Y1507D01*
X1053Y1507D02*
X1117Y1507D01*
X52Y1506D02*
X115Y1506D01*
X1054Y1506D02*
X1116Y1506D01*
X53Y1505D02*
X114Y1505D01*
X1055Y1505D02*
X1115Y1505D01*
X54Y1504D02*
X113Y1504D01*
X1055Y1504D02*
X1114Y1504D01*
X55Y1503D02*
X112Y1503D01*
X1056Y1503D02*
X1113Y1503D01*
X56Y1502D02*
X111Y1502D01*
X1058Y1502D02*
X1112Y1502D01*
X57Y1501D02*
X110Y1501D01*
X1059Y1501D02*
X1111Y1501D01*
X59Y1500D02*
X109Y1500D01*
X1060Y1500D02*
X1110Y1500D01*
X60Y1499D02*
X107Y1499D01*
X1061Y1499D02*
X1109Y1499D01*
X62Y1498D02*
X106Y1498D01*
X1063Y1498D02*
X1107Y1498D01*
X63Y1497D02*
X104Y1497D01*
X1065Y1497D02*
X1105Y1497D01*
X65Y1496D02*
X102Y1496D01*
X1066Y1496D02*
X1104Y1496D01*
X67Y1495D02*
X100Y1495D01*
X1068Y1495D02*
X1102Y1495D01*
X70Y1494D02*
X98Y1494D01*
X1071Y1494D02*
X1099Y1494D01*
X73Y1493D02*
X95Y1493D01*
X1074Y1493D02*
X1096Y1493D01*
X77Y1492D02*
X90Y1492D01*
X1079Y1492D02*
X1091Y1492D01*
X80Y1475D02*
X88Y1475D01*
X1081Y1475D02*
X1089Y1475D01*
X74Y1474D02*
X93Y1474D01*
X1075Y1474D02*
X1094Y1474D01*
X71Y1473D02*
X97Y1473D01*
X1072Y1473D02*
X1098Y1473D01*
X68Y1472D02*
X100Y1472D01*
X1069Y1472D02*
X1101Y1472D01*
X66Y1471D02*
X102Y1471D01*
X1067Y1471D02*
X1103Y1471D01*
X64Y1470D02*
X104Y1470D01*
X1065Y1470D02*
X1105Y1470D01*
X62Y1469D02*
X105Y1469D01*
X1063Y1469D02*
X1106Y1469D01*
X61Y1468D02*
X107Y1468D01*
X1062Y1468D02*
X1108Y1468D01*
X59Y1467D02*
X108Y1467D01*
X1061Y1467D02*
X1109Y1467D01*
X58Y1466D02*
X109Y1466D01*
X1059Y1466D02*
X1111Y1466D01*
X57Y1465D02*
X111Y1465D01*
X1058Y1465D02*
X1112Y1465D01*
X56Y1464D02*
X112Y1464D01*
X1057Y1464D02*
X1113Y1464D01*
X55Y1463D02*
X113Y1463D01*
X1056Y1463D02*
X1114Y1463D01*
X54Y1462D02*
X114Y1462D01*
X1055Y1462D02*
X1115Y1462D01*
X53Y1461D02*
X115Y1461D01*
X1054Y1461D02*
X1116Y1461D01*
X52Y1460D02*
X116Y1460D01*
X1053Y1460D02*
X1117Y1460D01*
X51Y1459D02*
X116Y1459D01*
X1052Y1459D02*
X1118Y1459D01*
X50Y1458D02*
X117Y1458D01*
X1052Y1458D02*
X1118Y1458D01*
X50Y1457D02*
X118Y1457D01*
X1051Y1457D02*
X1119Y1457D01*
X49Y1456D02*
X118Y1456D01*
X1050Y1456D02*
X1120Y1456D01*
X48Y1455D02*
X119Y1455D01*
X1050Y1455D02*
X1120Y1455D01*
X48Y1454D02*
X120Y1454D01*
X1049Y1454D02*
X1121Y1454D01*
X47Y1453D02*
X120Y1453D01*
X1048Y1453D02*
X1122Y1453D01*
X47Y1452D02*
X121Y1452D01*
X1048Y1452D02*
X1122Y1452D01*
X46Y1451D02*
X121Y1451D01*
X1047Y1451D02*
X1123Y1451D01*
X46Y1450D02*
X122Y1450D01*
X1047Y1450D02*
X1123Y1450D01*
X45Y1449D02*
X122Y1449D01*
X1046Y1449D02*
X1123Y1449D01*
X45Y1448D02*
X123Y1448D01*
X1046Y1448D02*
X1124Y1448D01*
X45Y1447D02*
X123Y1447D01*
X1046Y1447D02*
X1124Y1447D01*
X44Y1446D02*
X123Y1446D01*
X1045Y1446D02*
X1124Y1446D01*
X44Y1445D02*
X124Y1445D01*
X1045Y1445D02*
X1125Y1445D01*
X44Y1444D02*
X124Y1444D01*
X1045Y1444D02*
X1125Y1444D01*
X43Y1443D02*
X124Y1443D01*
X1045Y1443D02*
X1125Y1443D01*
X43Y1442D02*
X124Y1442D01*
X1044Y1442D02*
X1125Y1442D01*
X43Y1441D02*
X124Y1441D01*
X1044Y1441D02*
X1126Y1441D01*
X43Y1440D02*
X125Y1440D01*
X1044Y1440D02*
X1126Y1440D01*
X43Y1439D02*
X125Y1439D01*
X1044Y1439D02*
X1126Y1439D01*
X43Y1438D02*
X125Y1438D01*
X1044Y1438D02*
X1126Y1438D01*
X42Y1437D02*
X125Y1437D01*
X1044Y1437D02*
X1126Y1437D01*
X42Y1436D02*
X125Y1436D01*
X1044Y1436D02*
X1126Y1436D01*
X42Y1435D02*
X125Y1435D01*
X1044Y1435D02*
X1126Y1435D01*
X42Y1434D02*
X125Y1434D01*
X1043Y1434D02*
X1126Y1434D01*
X42Y1433D02*
X125Y1433D01*
X1043Y1433D02*
X1126Y1433D01*
X42Y1432D02*
X125Y1432D01*
X1043Y1432D02*
X1126Y1432D01*
X42Y1431D02*
X125Y1431D01*
X1044Y1431D02*
X1126Y1431D01*
X42Y1430D02*
X125Y1430D01*
X1044Y1430D02*
X1126Y1430D01*
X42Y1429D02*
X125Y1429D01*
X1044Y1429D02*
X1126Y1429D01*
X43Y1428D02*
X125Y1428D01*
X1044Y1428D02*
X1126Y1428D01*
X43Y1427D02*
X125Y1427D01*
X1044Y1427D02*
X1126Y1427D01*
X43Y1426D02*
X125Y1426D01*
X1044Y1426D02*
X1126Y1426D01*
X43Y1425D02*
X124Y1425D01*
X1044Y1425D02*
X1126Y1425D01*
X43Y1424D02*
X124Y1424D01*
X1045Y1424D02*
X1125Y1424D01*
X44Y1423D02*
X124Y1423D01*
X1045Y1423D02*
X1125Y1423D01*
X44Y1422D02*
X124Y1422D01*
X1045Y1422D02*
X1125Y1422D01*
X44Y1421D02*
X123Y1421D01*
X1045Y1421D02*
X1125Y1421D01*
X44Y1420D02*
X123Y1420D01*
X1046Y1420D02*
X1124Y1420D01*
X45Y1419D02*
X123Y1419D01*
X1046Y1419D02*
X1124Y1419D01*
X45Y1418D02*
X122Y1418D01*
X1046Y1418D02*
X1124Y1418D01*
X45Y1417D02*
X122Y1417D01*
X1047Y1417D02*
X1123Y1417D01*
X46Y1416D02*
X122Y1416D01*
X1047Y1416D02*
X1123Y1416D01*
X46Y1415D02*
X121Y1415D01*
X1048Y1415D02*
X1122Y1415D01*
X47Y1414D02*
X121Y1414D01*
X1048Y1414D02*
X1122Y1414D01*
X47Y1413D02*
X120Y1413D01*
X1049Y1413D02*
X1121Y1413D01*
X48Y1412D02*
X119Y1412D01*
X1049Y1412D02*
X1121Y1412D01*
X49Y1411D02*
X119Y1411D01*
X1050Y1411D02*
X1120Y1411D01*
X49Y1410D02*
X118Y1410D01*
X1051Y1410D02*
X1119Y1410D01*
X50Y1409D02*
X117Y1409D01*
X1051Y1409D02*
X1119Y1409D01*
X51Y1408D02*
X117Y1408D01*
X1052Y1408D02*
X1118Y1408D01*
X51Y1407D02*
X116Y1407D01*
X1053Y1407D02*
X1117Y1407D01*
X52Y1406D02*
X115Y1406D01*
X1054Y1406D02*
X1116Y1406D01*
X53Y1405D02*
X114Y1405D01*
X1054Y1405D02*
X1115Y1405D01*
X54Y1404D02*
X113Y1404D01*
X1055Y1404D02*
X1115Y1404D01*
X55Y1403D02*
X112Y1403D01*
X1056Y1403D02*
X1114Y1403D01*
X56Y1402D02*
X111Y1402D01*
X1057Y1402D02*
X1112Y1402D01*
X57Y1401D02*
X110Y1401D01*
X1059Y1401D02*
X1111Y1401D01*
X59Y1400D02*
X109Y1400D01*
X1060Y1400D02*
X1110Y1400D01*
X60Y1399D02*
X107Y1399D01*
X1061Y1399D02*
X1109Y1399D01*
X61Y1398D02*
X106Y1398D01*
X1063Y1398D02*
X1107Y1398D01*
X63Y1397D02*
X104Y1397D01*
X1064Y1397D02*
X1106Y1397D01*
X65Y1396D02*
X103Y1396D01*
X1066Y1396D02*
X1104Y1396D01*
X67Y1395D02*
X101Y1395D01*
X1068Y1395D02*
X1102Y1395D01*
X69Y1394D02*
X98Y1394D01*
X1071Y1394D02*
X1099Y1394D01*
X72Y1393D02*
X95Y1393D01*
X1074Y1393D02*
X1096Y1393D01*
X77Y1392D02*
X91Y1392D01*
X1078Y1392D02*
X1092Y1392D01*
X81Y1375D02*
X86Y1375D01*
X1082Y1375D02*
X1088Y1375D01*
X75Y1374D02*
X93Y1374D01*
X1076Y1374D02*
X1094Y1374D01*
X71Y1373D02*
X96Y1373D01*
X1072Y1373D02*
X1098Y1373D01*
X68Y1372D02*
X99Y1372D01*
X1069Y1372D02*
X1100Y1372D01*
X66Y1371D02*
X101Y1371D01*
X1067Y1371D02*
X1103Y1371D01*
X64Y1370D02*
X103Y1370D01*
X1065Y1370D02*
X1105Y1370D01*
X62Y1369D02*
X105Y1369D01*
X1064Y1369D02*
X1106Y1369D01*
X61Y1368D02*
X107Y1368D01*
X1062Y1368D02*
X1108Y1368D01*
X59Y1367D02*
X108Y1367D01*
X1061Y1367D02*
X1109Y1367D01*
X58Y1366D02*
X109Y1366D01*
X1059Y1366D02*
X1111Y1366D01*
X57Y1365D02*
X111Y1365D01*
X1058Y1365D02*
X1112Y1365D01*
X56Y1364D02*
X112Y1364D01*
X1057Y1364D02*
X1113Y1364D01*
X55Y1363D02*
X113Y1363D01*
X1056Y1363D02*
X1114Y1363D01*
X54Y1362D02*
X114Y1362D01*
X1055Y1362D02*
X1115Y1362D01*
X53Y1361D02*
X115Y1361D01*
X1054Y1361D02*
X1116Y1361D01*
X52Y1360D02*
X115Y1360D01*
X1053Y1360D02*
X1117Y1360D01*
X51Y1359D02*
X116Y1359D01*
X1052Y1359D02*
X1117Y1359D01*
X50Y1358D02*
X117Y1358D01*
X1052Y1358D02*
X1118Y1358D01*
X50Y1357D02*
X118Y1357D01*
X1051Y1357D02*
X1119Y1357D01*
X49Y1356D02*
X118Y1356D01*
X1050Y1356D02*
X1120Y1356D01*
X48Y1355D02*
X119Y1355D01*
X1050Y1355D02*
X1120Y1355D01*
X48Y1354D02*
X120Y1354D01*
X1049Y1354D02*
X1121Y1354D01*
X47Y1353D02*
X120Y1353D01*
X1048Y1353D02*
X1121Y1353D01*
X47Y1352D02*
X121Y1352D01*
X1048Y1352D02*
X1122Y1352D01*
X46Y1351D02*
X121Y1351D01*
X1047Y1351D02*
X1122Y1351D01*
X46Y1350D02*
X122Y1350D01*
X1047Y1350D02*
X1123Y1350D01*
X45Y1349D02*
X122Y1349D01*
X1047Y1349D02*
X1123Y1349D01*
X45Y1348D02*
X122Y1348D01*
X1046Y1348D02*
X1124Y1348D01*
X45Y1347D02*
X123Y1347D01*
X1046Y1347D02*
X1124Y1347D01*
X44Y1346D02*
X123Y1346D01*
X1045Y1346D02*
X1124Y1346D01*
X44Y1345D02*
X123Y1345D01*
X1045Y1345D02*
X1125Y1345D01*
X44Y1344D02*
X124Y1344D01*
X1045Y1344D02*
X1125Y1344D01*
X43Y1343D02*
X124Y1343D01*
X1045Y1343D02*
X1125Y1343D01*
X43Y1342D02*
X124Y1342D01*
X1044Y1342D02*
X1125Y1342D01*
X43Y1341D02*
X124Y1341D01*
X1044Y1341D02*
X1126Y1341D01*
X43Y1340D02*
X125Y1340D01*
X1044Y1340D02*
X1126Y1340D01*
X43Y1339D02*
X125Y1339D01*
X1044Y1339D02*
X1126Y1339D01*
X43Y1338D02*
X125Y1338D01*
X1044Y1338D02*
X1126Y1338D01*
X42Y1337D02*
X125Y1337D01*
X1044Y1337D02*
X1126Y1337D01*
X42Y1336D02*
X125Y1336D01*
X1044Y1336D02*
X1126Y1336D01*
X42Y1335D02*
X125Y1335D01*
X1044Y1335D02*
X1126Y1335D01*
X42Y1334D02*
X125Y1334D01*
X1043Y1334D02*
X1126Y1334D01*
X42Y1333D02*
X125Y1333D01*
X1043Y1333D02*
X1126Y1333D01*
X42Y1332D02*
X125Y1332D01*
X1043Y1332D02*
X1126Y1332D01*
X42Y1331D02*
X125Y1331D01*
X1044Y1331D02*
X1126Y1331D01*
X42Y1330D02*
X125Y1330D01*
X1044Y1330D02*
X1126Y1330D01*
X42Y1329D02*
X125Y1329D01*
X1044Y1329D02*
X1126Y1329D01*
X43Y1328D02*
X125Y1328D01*
X1044Y1328D02*
X1126Y1328D01*
X43Y1327D02*
X125Y1327D01*
X1044Y1327D02*
X1126Y1327D01*
X43Y1326D02*
X125Y1326D01*
X1044Y1326D02*
X1126Y1326D01*
X43Y1325D02*
X124Y1325D01*
X1044Y1325D02*
X1126Y1325D01*
X43Y1324D02*
X124Y1324D01*
X1045Y1324D02*
X1125Y1324D01*
X44Y1323D02*
X124Y1323D01*
X1045Y1323D02*
X1125Y1323D01*
X44Y1322D02*
X124Y1322D01*
X1045Y1322D02*
X1125Y1322D01*
X44Y1321D02*
X123Y1321D01*
X1045Y1321D02*
X1125Y1321D01*
X44Y1320D02*
X123Y1320D01*
X1046Y1320D02*
X1124Y1320D01*
X45Y1319D02*
X123Y1319D01*
X1046Y1319D02*
X1124Y1319D01*
X45Y1318D02*
X122Y1318D01*
X1046Y1318D02*
X1124Y1318D01*
X45Y1317D02*
X122Y1317D01*
X1047Y1317D02*
X1123Y1317D01*
X46Y1316D02*
X122Y1316D01*
X1047Y1316D02*
X1123Y1316D01*
X46Y1315D02*
X121Y1315D01*
X1048Y1315D02*
X1122Y1315D01*
X47Y1314D02*
X121Y1314D01*
X1048Y1314D02*
X1122Y1314D01*
X47Y1313D02*
X120Y1313D01*
X1049Y1313D02*
X1121Y1313D01*
X48Y1312D02*
X119Y1312D01*
X1049Y1312D02*
X1121Y1312D01*
X49Y1311D02*
X119Y1311D01*
X1050Y1311D02*
X1120Y1311D01*
X49Y1310D02*
X118Y1310D01*
X1050Y1310D02*
X1119Y1310D01*
X50Y1309D02*
X118Y1309D01*
X1051Y1309D02*
X1119Y1309D01*
X51Y1308D02*
X117Y1308D01*
X1052Y1308D02*
X1118Y1308D01*
X51Y1307D02*
X116Y1307D01*
X1053Y1307D02*
X1117Y1307D01*
X52Y1306D02*
X115Y1306D01*
X1053Y1306D02*
X1117Y1306D01*
X53Y1305D02*
X114Y1305D01*
X1054Y1305D02*
X1116Y1305D01*
X54Y1304D02*
X113Y1304D01*
X1055Y1304D02*
X1115Y1304D01*
X55Y1303D02*
X112Y1303D01*
X1056Y1303D02*
X1114Y1303D01*
X56Y1302D02*
X111Y1302D01*
X1057Y1302D02*
X1113Y1302D01*
X57Y1301D02*
X110Y1301D01*
X1058Y1301D02*
X1111Y1301D01*
X58Y1300D02*
X109Y1300D01*
X1060Y1300D02*
X1110Y1300D01*
X60Y1299D02*
X108Y1299D01*
X1061Y1299D02*
X1109Y1299D01*
X61Y1298D02*
X106Y1298D01*
X1063Y1298D02*
X1107Y1298D01*
X63Y1297D02*
X105Y1297D01*
X1064Y1297D02*
X1106Y1297D01*
X65Y1296D02*
X103Y1296D01*
X1066Y1296D02*
X1104Y1296D01*
X67Y1295D02*
X101Y1295D01*
X1068Y1295D02*
X1102Y1295D01*
X69Y1294D02*
X98Y1294D01*
X1070Y1294D02*
X1100Y1294D01*
X72Y1293D02*
X96Y1293D01*
X1073Y1293D02*
X1097Y1293D01*
X76Y1292D02*
X91Y1292D01*
X1077Y1292D02*
X1093Y1292D01*
X83Y1275D02*
X84Y1275D01*
X1084Y1275D02*
X1086Y1275D01*
X75Y1274D02*
X92Y1274D01*
X1076Y1274D02*
X1093Y1274D01*
X71Y1273D02*
X96Y1273D01*
X1073Y1273D02*
X1097Y1273D01*
X69Y1272D02*
X99Y1272D01*
X1070Y1272D02*
X1100Y1272D01*
X66Y1271D02*
X101Y1271D01*
X1068Y1271D02*
X1102Y1271D01*
X64Y1270D02*
X103Y1270D01*
X1066Y1270D02*
X1104Y1270D01*
X63Y1269D02*
X105Y1269D01*
X1064Y1269D02*
X1106Y1269D01*
X61Y1268D02*
X106Y1268D01*
X1062Y1268D02*
X1108Y1268D01*
X60Y1267D02*
X108Y1267D01*
X1061Y1267D02*
X1109Y1267D01*
X58Y1266D02*
X109Y1266D01*
X1060Y1266D02*
X1110Y1266D01*
X57Y1265D02*
X110Y1265D01*
X1058Y1265D02*
X1112Y1265D01*
X56Y1264D02*
X112Y1264D01*
X1057Y1264D02*
X1113Y1264D01*
X55Y1263D02*
X113Y1263D01*
X1056Y1263D02*
X1114Y1263D01*
X54Y1262D02*
X114Y1262D01*
X1055Y1262D02*
X1115Y1262D01*
X53Y1261D02*
X115Y1261D01*
X1054Y1261D02*
X1116Y1261D01*
X52Y1260D02*
X115Y1260D01*
X1053Y1260D02*
X1117Y1260D01*
X51Y1259D02*
X116Y1259D01*
X1052Y1259D02*
X1117Y1259D01*
X51Y1258D02*
X117Y1258D01*
X1052Y1258D02*
X1118Y1258D01*
X50Y1257D02*
X118Y1257D01*
X1051Y1257D02*
X1119Y1257D01*
X49Y1256D02*
X118Y1256D01*
X1050Y1256D02*
X1120Y1256D01*
X48Y1255D02*
X119Y1255D01*
X1050Y1255D02*
X1120Y1255D01*
X48Y1254D02*
X120Y1254D01*
X1049Y1254D02*
X1121Y1254D01*
X47Y1253D02*
X120Y1253D01*
X1049Y1253D02*
X1121Y1253D01*
X47Y1252D02*
X121Y1252D01*
X1048Y1252D02*
X1122Y1252D01*
X46Y1251D02*
X121Y1251D01*
X1048Y1251D02*
X1122Y1251D01*
X46Y1250D02*
X122Y1250D01*
X1047Y1250D02*
X1123Y1250D01*
X45Y1249D02*
X122Y1249D01*
X1047Y1249D02*
X1123Y1249D01*
X45Y1248D02*
X122Y1248D01*
X1046Y1248D02*
X1124Y1248D01*
X45Y1247D02*
X123Y1247D01*
X1046Y1247D02*
X1124Y1247D01*
X44Y1246D02*
X123Y1246D01*
X1046Y1246D02*
X1124Y1246D01*
X44Y1245D02*
X123Y1245D01*
X1045Y1245D02*
X1125Y1245D01*
X44Y1244D02*
X124Y1244D01*
X1045Y1244D02*
X1125Y1244D01*
X43Y1243D02*
X124Y1243D01*
X1045Y1243D02*
X1125Y1243D01*
X43Y1242D02*
X124Y1242D01*
X1044Y1242D02*
X1125Y1242D01*
X43Y1241D02*
X124Y1241D01*
X1044Y1241D02*
X1126Y1241D01*
X43Y1240D02*
X125Y1240D01*
X1044Y1240D02*
X1126Y1240D01*
X43Y1239D02*
X125Y1239D01*
X1044Y1239D02*
X1126Y1239D01*
X43Y1238D02*
X125Y1238D01*
X1044Y1238D02*
X1126Y1238D01*
X42Y1237D02*
X125Y1237D01*
X1044Y1237D02*
X1126Y1237D01*
X42Y1236D02*
X125Y1236D01*
X1044Y1236D02*
X1126Y1236D01*
X42Y1235D02*
X125Y1235D01*
X1044Y1235D02*
X1126Y1235D01*
X42Y1234D02*
X125Y1234D01*
X1043Y1234D02*
X1126Y1234D01*
X42Y1233D02*
X125Y1233D01*
X1043Y1233D02*
X1126Y1233D01*
X42Y1232D02*
X125Y1232D01*
X1043Y1232D02*
X1126Y1232D01*
X42Y1231D02*
X125Y1231D01*
X1044Y1231D02*
X1126Y1231D01*
X42Y1230D02*
X125Y1230D01*
X1044Y1230D02*
X1126Y1230D01*
X42Y1229D02*
X125Y1229D01*
X1044Y1229D02*
X1126Y1229D01*
X43Y1228D02*
X125Y1228D01*
X1044Y1228D02*
X1126Y1228D01*
X43Y1227D02*
X125Y1227D01*
X1044Y1227D02*
X1126Y1227D01*
X43Y1226D02*
X125Y1226D01*
X1044Y1226D02*
X1126Y1226D01*
X43Y1225D02*
X124Y1225D01*
X1044Y1225D02*
X1126Y1225D01*
X43Y1224D02*
X124Y1224D01*
X1044Y1224D02*
X1125Y1224D01*
X43Y1223D02*
X124Y1223D01*
X1045Y1223D02*
X1125Y1223D01*
X44Y1222D02*
X124Y1222D01*
X1045Y1222D02*
X1125Y1222D01*
X44Y1221D02*
X123Y1221D01*
X1045Y1221D02*
X1125Y1221D01*
X44Y1220D02*
X123Y1220D01*
X1046Y1220D02*
X1124Y1220D01*
X45Y1219D02*
X123Y1219D01*
X1046Y1219D02*
X1124Y1219D01*
X45Y1218D02*
X122Y1218D01*
X1046Y1218D02*
X1124Y1218D01*
X45Y1217D02*
X122Y1217D01*
X1047Y1217D02*
X1123Y1217D01*
X46Y1216D02*
X122Y1216D01*
X1047Y1216D02*
X1123Y1216D01*
X46Y1215D02*
X121Y1215D01*
X1048Y1215D02*
X1122Y1215D01*
X47Y1214D02*
X121Y1214D01*
X1048Y1214D02*
X1122Y1214D01*
X47Y1213D02*
X120Y1213D01*
X1049Y1213D02*
X1121Y1213D01*
X48Y1212D02*
X120Y1212D01*
X1049Y1212D02*
X1121Y1212D01*
X49Y1211D02*
X119Y1211D01*
X1050Y1211D02*
X1120Y1211D01*
X49Y1210D02*
X118Y1210D01*
X1050Y1210D02*
X1120Y1210D01*
X50Y1209D02*
X118Y1209D01*
X1051Y1209D02*
X1119Y1209D01*
X51Y1208D02*
X117Y1208D01*
X1052Y1208D02*
X1118Y1208D01*
X51Y1207D02*
X116Y1207D01*
X1053Y1207D02*
X1117Y1207D01*
X52Y1206D02*
X115Y1206D01*
X1053Y1206D02*
X1117Y1206D01*
X53Y1205D02*
X114Y1205D01*
X1054Y1205D02*
X1116Y1205D01*
X54Y1204D02*
X114Y1204D01*
X1055Y1204D02*
X1115Y1204D01*
X55Y1203D02*
X113Y1203D01*
X1056Y1203D02*
X1114Y1203D01*
X56Y1202D02*
X111Y1202D01*
X1057Y1202D02*
X1113Y1202D01*
X57Y1201D02*
X110Y1201D01*
X1058Y1201D02*
X1112Y1201D01*
X58Y1200D02*
X109Y1200D01*
X1060Y1200D02*
X1110Y1200D01*
X60Y1199D02*
X108Y1199D01*
X1061Y1199D02*
X1109Y1199D01*
X61Y1198D02*
X106Y1198D01*
X1062Y1198D02*
X1108Y1198D01*
X63Y1197D02*
X105Y1197D01*
X1064Y1197D02*
X1106Y1197D01*
X64Y1196D02*
X103Y1196D01*
X1066Y1196D02*
X1104Y1196D01*
X66Y1195D02*
X101Y1195D01*
X1068Y1195D02*
X1102Y1195D01*
X69Y1194D02*
X99Y1194D01*
X1070Y1194D02*
X1100Y1194D01*
X71Y1193D02*
X96Y1193D01*
X1073Y1193D02*
X1097Y1193D01*
X75Y1192D02*
X92Y1192D01*
X1077Y1192D02*
X1093Y1192D01*
X84Y1191D02*
X84Y1191D01*
X1085Y1191D02*
X1085Y1191D01*
X76Y1174D02*
X92Y1174D01*
X1077Y1174D02*
X1093Y1174D01*
X72Y1173D02*
X96Y1173D01*
X1073Y1173D02*
X1097Y1173D01*
X69Y1172D02*
X99Y1172D01*
X1070Y1172D02*
X1100Y1172D01*
X67Y1171D02*
X101Y1171D01*
X1068Y1171D02*
X1102Y1171D01*
X65Y1170D02*
X103Y1170D01*
X1066Y1170D02*
X1104Y1170D01*
X63Y1169D02*
X105Y1169D01*
X1064Y1169D02*
X1106Y1169D01*
X61Y1168D02*
X106Y1168D01*
X1062Y1168D02*
X1107Y1168D01*
X60Y1167D02*
X108Y1167D01*
X1061Y1167D02*
X1109Y1167D01*
X58Y1166D02*
X109Y1166D01*
X1060Y1166D02*
X1110Y1166D01*
X57Y1165D02*
X110Y1165D01*
X1058Y1165D02*
X1112Y1165D01*
X56Y1164D02*
X111Y1164D01*
X1057Y1164D02*
X1113Y1164D01*
X55Y1163D02*
X113Y1163D01*
X1056Y1163D02*
X1114Y1163D01*
X54Y1162D02*
X113Y1162D01*
X1055Y1162D02*
X1115Y1162D01*
X53Y1161D02*
X114Y1161D01*
X1054Y1161D02*
X1116Y1161D01*
X52Y1160D02*
X115Y1160D01*
X1053Y1160D02*
X1117Y1160D01*
X51Y1159D02*
X116Y1159D01*
X1053Y1159D02*
X1117Y1159D01*
X51Y1158D02*
X117Y1158D01*
X1052Y1158D02*
X1118Y1158D01*
X50Y1157D02*
X118Y1157D01*
X1051Y1157D02*
X1119Y1157D01*
X49Y1156D02*
X118Y1156D01*
X1050Y1156D02*
X1119Y1156D01*
X49Y1155D02*
X119Y1155D01*
X1050Y1155D02*
X1120Y1155D01*
X48Y1154D02*
X119Y1154D01*
X1049Y1154D02*
X1121Y1154D01*
X47Y1153D02*
X120Y1153D01*
X1049Y1153D02*
X1121Y1153D01*
X47Y1152D02*
X121Y1152D01*
X1048Y1152D02*
X1122Y1152D01*
X46Y1151D02*
X121Y1151D01*
X1048Y1151D02*
X1122Y1151D01*
X46Y1150D02*
X122Y1150D01*
X1047Y1150D02*
X1123Y1150D01*
X45Y1149D02*
X122Y1149D01*
X1047Y1149D02*
X1123Y1149D01*
X45Y1148D02*
X122Y1148D01*
X1046Y1148D02*
X1124Y1148D01*
X45Y1147D02*
X123Y1147D01*
X1046Y1147D02*
X1124Y1147D01*
X44Y1146D02*
X123Y1146D01*
X1046Y1146D02*
X1124Y1146D01*
X44Y1145D02*
X123Y1145D01*
X1045Y1145D02*
X1125Y1145D01*
X44Y1144D02*
X124Y1144D01*
X1045Y1144D02*
X1125Y1144D01*
X44Y1143D02*
X124Y1143D01*
X1045Y1143D02*
X1125Y1143D01*
X43Y1142D02*
X124Y1142D01*
X1045Y1142D02*
X1125Y1142D01*
X43Y1141D02*
X124Y1141D01*
X1044Y1141D02*
X1126Y1141D01*
X43Y1140D02*
X125Y1140D01*
X1044Y1140D02*
X1126Y1140D01*
X43Y1139D02*
X125Y1139D01*
X1044Y1139D02*
X1126Y1139D01*
X43Y1138D02*
X125Y1138D01*
X1044Y1138D02*
X1126Y1138D01*
X42Y1137D02*
X125Y1137D01*
X1044Y1137D02*
X1126Y1137D01*
X42Y1136D02*
X125Y1136D01*
X1044Y1136D02*
X1126Y1136D01*
X42Y1135D02*
X125Y1135D01*
X1044Y1135D02*
X1126Y1135D01*
X42Y1134D02*
X125Y1134D01*
X1043Y1134D02*
X1126Y1134D01*
X42Y1133D02*
X125Y1133D01*
X1043Y1133D02*
X1126Y1133D01*
X42Y1132D02*
X125Y1132D01*
X1043Y1132D02*
X1126Y1132D01*
X42Y1131D02*
X125Y1131D01*
X1044Y1131D02*
X1126Y1131D01*
X42Y1130D02*
X125Y1130D01*
X1044Y1130D02*
X1126Y1130D01*
X42Y1129D02*
X125Y1129D01*
X1044Y1129D02*
X1126Y1129D01*
X43Y1128D02*
X125Y1128D01*
X1044Y1128D02*
X1126Y1128D01*
X43Y1127D02*
X125Y1127D01*
X1044Y1127D02*
X1126Y1127D01*
X43Y1126D02*
X125Y1126D01*
X1044Y1126D02*
X1126Y1126D01*
X43Y1125D02*
X124Y1125D01*
X1044Y1125D02*
X1126Y1125D01*
X43Y1124D02*
X124Y1124D01*
X1044Y1124D02*
X1125Y1124D01*
X43Y1123D02*
X124Y1123D01*
X1045Y1123D02*
X1125Y1123D01*
X44Y1122D02*
X124Y1122D01*
X1045Y1122D02*
X1125Y1122D01*
X44Y1121D02*
X123Y1121D01*
X1045Y1121D02*
X1125Y1121D01*
X44Y1120D02*
X123Y1120D01*
X1045Y1120D02*
X1124Y1120D01*
X45Y1119D02*
X123Y1119D01*
X1046Y1119D02*
X1124Y1119D01*
X45Y1118D02*
X122Y1118D01*
X1046Y1118D02*
X1124Y1118D01*
X45Y1117D02*
X122Y1117D01*
X1047Y1117D02*
X1123Y1117D01*
X46Y1116D02*
X122Y1116D01*
X1047Y1116D02*
X1123Y1116D01*
X46Y1115D02*
X121Y1115D01*
X1047Y1115D02*
X1122Y1115D01*
X47Y1114D02*
X121Y1114D01*
X1048Y1114D02*
X1122Y1114D01*
X47Y1113D02*
X120Y1113D01*
X1048Y1113D02*
X1121Y1113D01*
X48Y1112D02*
X120Y1112D01*
X1049Y1112D02*
X1121Y1112D01*
X48Y1111D02*
X119Y1111D01*
X1050Y1111D02*
X1120Y1111D01*
X49Y1110D02*
X118Y1110D01*
X1050Y1110D02*
X1120Y1110D01*
X50Y1109D02*
X118Y1109D01*
X1051Y1109D02*
X1119Y1109D01*
X50Y1108D02*
X117Y1108D01*
X1052Y1108D02*
X1118Y1108D01*
X51Y1107D02*
X116Y1107D01*
X1052Y1107D02*
X1117Y1107D01*
X52Y1106D02*
X115Y1106D01*
X1053Y1106D02*
X1117Y1106D01*
X53Y1105D02*
X115Y1105D01*
X1054Y1105D02*
X1116Y1105D01*
X54Y1104D02*
X114Y1104D01*
X1055Y1104D02*
X1115Y1104D01*
X55Y1103D02*
X113Y1103D01*
X1056Y1103D02*
X1114Y1103D01*
X56Y1102D02*
X112Y1102D01*
X1057Y1102D02*
X1113Y1102D01*
X57Y1101D02*
X111Y1101D01*
X1058Y1101D02*
X1112Y1101D01*
X58Y1100D02*
X109Y1100D01*
X1059Y1100D02*
X1111Y1100D01*
X60Y1099D02*
X108Y1099D01*
X1061Y1099D02*
X1109Y1099D01*
X61Y1098D02*
X107Y1098D01*
X1062Y1098D02*
X1108Y1098D01*
X63Y1097D02*
X105Y1097D01*
X1064Y1097D02*
X1106Y1097D01*
X64Y1096D02*
X103Y1096D01*
X1065Y1096D02*
X1105Y1096D01*
X66Y1095D02*
X101Y1095D01*
X1067Y1095D02*
X1103Y1095D01*
X68Y1094D02*
X99Y1094D01*
X1070Y1094D02*
X1100Y1094D01*
X71Y1093D02*
X96Y1093D01*
X1072Y1093D02*
X1098Y1093D01*
X75Y1092D02*
X93Y1092D01*
X1076Y1092D02*
X1094Y1092D01*
X82Y1091D02*
X86Y1091D01*
X1083Y1091D02*
X1087Y1091D01*
X76Y1074D02*
X91Y1074D01*
X1078Y1074D02*
X1092Y1074D01*
X72Y1073D02*
X95Y1073D01*
X1073Y1073D02*
X1096Y1073D01*
X69Y1072D02*
X98Y1072D01*
X1070Y1072D02*
X1099Y1072D01*
X67Y1071D02*
X101Y1071D01*
X1068Y1071D02*
X1102Y1071D01*
X65Y1070D02*
X103Y1070D01*
X1066Y1070D02*
X1104Y1070D01*
X63Y1069D02*
X104Y1069D01*
X1064Y1069D02*
X1106Y1069D01*
X61Y1068D02*
X106Y1068D01*
X1063Y1068D02*
X1107Y1068D01*
X60Y1067D02*
X107Y1067D01*
X1061Y1067D02*
X1109Y1067D01*
X59Y1066D02*
X109Y1066D01*
X1060Y1066D02*
X1110Y1066D01*
X57Y1065D02*
X110Y1065D01*
X1059Y1065D02*
X1111Y1065D01*
X56Y1064D02*
X111Y1064D01*
X1057Y1064D02*
X1113Y1064D01*
X55Y1063D02*
X112Y1063D01*
X1056Y1063D02*
X1114Y1063D01*
X54Y1062D02*
X113Y1062D01*
X1055Y1062D02*
X1115Y1062D01*
X53Y1061D02*
X114Y1061D01*
X1054Y1061D02*
X1116Y1061D01*
X52Y1060D02*
X115Y1060D01*
X1053Y1060D02*
X1116Y1060D01*
X51Y1059D02*
X116Y1059D01*
X1053Y1059D02*
X1117Y1059D01*
X51Y1058D02*
X117Y1058D01*
X1052Y1058D02*
X1118Y1058D01*
X50Y1057D02*
X117Y1057D01*
X1051Y1057D02*
X1119Y1057D01*
X49Y1056D02*
X118Y1056D01*
X1051Y1056D02*
X1119Y1056D01*
X49Y1055D02*
X119Y1055D01*
X1050Y1055D02*
X1120Y1055D01*
X48Y1054D02*
X119Y1054D01*
X1049Y1054D02*
X1121Y1054D01*
X47Y1053D02*
X120Y1053D01*
X1049Y1053D02*
X1121Y1053D01*
X47Y1052D02*
X121Y1052D01*
X1048Y1052D02*
X1122Y1052D01*
X46Y1051D02*
X121Y1051D01*
X1048Y1051D02*
X1122Y1051D01*
X46Y1050D02*
X122Y1050D01*
X1047Y1050D02*
X1123Y1050D01*
X45Y1049D02*
X122Y1049D01*
X1047Y1049D02*
X1123Y1049D01*
X45Y1048D02*
X122Y1048D01*
X1046Y1048D02*
X1124Y1048D01*
X45Y1047D02*
X123Y1047D01*
X1046Y1047D02*
X1124Y1047D01*
X44Y1046D02*
X123Y1046D01*
X1046Y1046D02*
X1124Y1046D01*
X44Y1045D02*
X123Y1045D01*
X1045Y1045D02*
X1125Y1045D01*
X44Y1044D02*
X124Y1044D01*
X1045Y1044D02*
X1125Y1044D01*
X44Y1043D02*
X124Y1043D01*
X1045Y1043D02*
X1125Y1043D01*
X43Y1042D02*
X124Y1042D01*
X1045Y1042D02*
X1125Y1042D01*
X43Y1041D02*
X124Y1041D01*
X1044Y1041D02*
X1126Y1041D01*
X43Y1040D02*
X125Y1040D01*
X1044Y1040D02*
X1126Y1040D01*
X43Y1039D02*
X125Y1039D01*
X1044Y1039D02*
X1126Y1039D01*
X43Y1038D02*
X125Y1038D01*
X1044Y1038D02*
X1126Y1038D01*
X42Y1037D02*
X125Y1037D01*
X1044Y1037D02*
X1126Y1037D01*
X42Y1036D02*
X125Y1036D01*
X1044Y1036D02*
X1126Y1036D01*
X42Y1035D02*
X125Y1035D01*
X1044Y1035D02*
X1126Y1035D01*
X42Y1034D02*
X125Y1034D01*
X1043Y1034D02*
X1126Y1034D01*
X42Y1033D02*
X125Y1033D01*
X1043Y1033D02*
X1126Y1033D01*
X42Y1032D02*
X125Y1032D01*
X1043Y1032D02*
X1126Y1032D01*
X42Y1031D02*
X125Y1031D01*
X1044Y1031D02*
X1126Y1031D01*
X42Y1030D02*
X125Y1030D01*
X1044Y1030D02*
X1126Y1030D01*
X42Y1029D02*
X125Y1029D01*
X1044Y1029D02*
X1126Y1029D01*
X43Y1028D02*
X125Y1028D01*
X1044Y1028D02*
X1126Y1028D01*
X43Y1027D02*
X125Y1027D01*
X1044Y1027D02*
X1126Y1027D01*
X43Y1026D02*
X125Y1026D01*
X1044Y1026D02*
X1126Y1026D01*
X43Y1025D02*
X124Y1025D01*
X1044Y1025D02*
X1126Y1025D01*
X43Y1024D02*
X124Y1024D01*
X1044Y1024D02*
X1125Y1024D01*
X43Y1023D02*
X124Y1023D01*
X1045Y1023D02*
X1125Y1023D01*
X44Y1022D02*
X124Y1022D01*
X1045Y1022D02*
X1125Y1022D01*
X44Y1021D02*
X123Y1021D01*
X1045Y1021D02*
X1125Y1021D01*
X44Y1020D02*
X123Y1020D01*
X1045Y1020D02*
X1124Y1020D01*
X45Y1019D02*
X123Y1019D01*
X1046Y1019D02*
X1124Y1019D01*
X45Y1018D02*
X123Y1018D01*
X1046Y1018D02*
X1124Y1018D01*
X45Y1017D02*
X122Y1017D01*
X1047Y1017D02*
X1123Y1017D01*
X46Y1016D02*
X122Y1016D01*
X1047Y1016D02*
X1123Y1016D01*
X46Y1015D02*
X121Y1015D01*
X1047Y1015D02*
X1122Y1015D01*
X47Y1014D02*
X121Y1014D01*
X1048Y1014D02*
X1122Y1014D01*
X47Y1013D02*
X120Y1013D01*
X1048Y1013D02*
X1122Y1013D01*
X48Y1012D02*
X120Y1012D01*
X1049Y1012D02*
X1121Y1012D01*
X48Y1011D02*
X119Y1011D01*
X1050Y1011D02*
X1120Y1011D01*
X49Y1010D02*
X118Y1010D01*
X1050Y1010D02*
X1120Y1010D01*
X50Y1009D02*
X118Y1009D01*
X1051Y1009D02*
X1119Y1009D01*
X50Y1008D02*
X117Y1008D01*
X1052Y1008D02*
X1118Y1008D01*
X51Y1007D02*
X116Y1007D01*
X1052Y1007D02*
X1118Y1007D01*
X52Y1006D02*
X116Y1006D01*
X1053Y1006D02*
X1117Y1006D01*
X53Y1005D02*
X115Y1005D01*
X1054Y1005D02*
X1116Y1005D01*
X54Y1004D02*
X114Y1004D01*
X1055Y1004D02*
X1115Y1004D01*
X55Y1003D02*
X113Y1003D01*
X1056Y1003D02*
X1114Y1003D01*
X56Y1002D02*
X112Y1002D01*
X1057Y1002D02*
X1113Y1002D01*
X57Y1001D02*
X111Y1001D01*
X1058Y1001D02*
X1112Y1001D01*
X58Y1000D02*
X109Y1000D01*
X1059Y1000D02*
X1111Y1000D01*
X59Y999D02*
X108Y999D01*
X1061Y999D02*
X1109Y999D01*
X61Y998D02*
X107Y998D01*
X1062Y998D02*
X1108Y998D01*
X62Y997D02*
X105Y997D01*
X1064Y997D02*
X1106Y997D01*
X64Y996D02*
X103Y996D01*
X1065Y996D02*
X1105Y996D01*
X66Y995D02*
X102Y995D01*
X1067Y995D02*
X1103Y995D01*
X68Y994D02*
X99Y994D01*
X1069Y994D02*
X1101Y994D01*
X71Y993D02*
X97Y993D01*
X1072Y993D02*
X1098Y993D01*
X74Y992D02*
X93Y992D01*
X1076Y992D02*
X1094Y992D01*
X80Y991D02*
X88Y991D01*
X1081Y991D02*
X1089Y991D01*
X77Y974D02*
X90Y974D01*
X1078Y974D02*
X1091Y974D01*
X73Y973D02*
X95Y973D01*
X1074Y973D02*
X1096Y973D01*
X70Y972D02*
X98Y972D01*
X1071Y972D02*
X1099Y972D01*
X67Y971D02*
X100Y971D01*
X1068Y971D02*
X1102Y971D01*
X65Y970D02*
X102Y970D01*
X1066Y970D02*
X1104Y970D01*
X63Y969D02*
X104Y969D01*
X1064Y969D02*
X1105Y969D01*
X62Y968D02*
X106Y968D01*
X1063Y968D02*
X1107Y968D01*
X60Y967D02*
X107Y967D01*
X1061Y967D02*
X1109Y967D01*
X59Y966D02*
X109Y966D01*
X1060Y966D02*
X1110Y966D01*
X57Y965D02*
X110Y965D01*
X1059Y965D02*
X1111Y965D01*
X56Y964D02*
X111Y964D01*
X1058Y964D02*
X1112Y964D01*
X55Y963D02*
X112Y963D01*
X1056Y963D02*
X1113Y963D01*
X54Y962D02*
X113Y962D01*
X1055Y962D02*
X1115Y962D01*
X53Y961D02*
X114Y961D01*
X1054Y961D02*
X1115Y961D01*
X52Y960D02*
X115Y960D01*
X1054Y960D02*
X1116Y960D01*
X52Y959D02*
X116Y959D01*
X1053Y959D02*
X1117Y959D01*
X51Y958D02*
X117Y958D01*
X1052Y958D02*
X1118Y958D01*
X50Y957D02*
X117Y957D01*
X1051Y957D02*
X1119Y957D01*
X49Y956D02*
X118Y956D01*
X1051Y956D02*
X1119Y956D01*
X49Y955D02*
X119Y955D01*
X1050Y955D02*
X1120Y955D01*
X48Y954D02*
X119Y954D01*
X1049Y954D02*
X1121Y954D01*
X47Y953D02*
X120Y953D01*
X1049Y953D02*
X1121Y953D01*
X47Y952D02*
X120Y952D01*
X1048Y952D02*
X1122Y952D01*
X46Y951D02*
X121Y951D01*
X1048Y951D02*
X1122Y951D01*
X46Y950D02*
X121Y950D01*
X1047Y950D02*
X1123Y950D01*
X45Y949D02*
X122Y949D01*
X1047Y949D02*
X1123Y949D01*
X45Y948D02*
X122Y948D01*
X1046Y948D02*
X1124Y948D01*
X45Y947D02*
X123Y947D01*
X1046Y947D02*
X1124Y947D01*
X44Y946D02*
X123Y946D01*
X1046Y946D02*
X1124Y946D01*
X44Y945D02*
X123Y945D01*
X1045Y945D02*
X1125Y945D01*
X44Y944D02*
X124Y944D01*
X1045Y944D02*
X1125Y944D01*
X44Y943D02*
X124Y943D01*
X1045Y943D02*
X1125Y943D01*
X43Y942D02*
X124Y942D01*
X1045Y942D02*
X1125Y942D01*
X43Y941D02*
X124Y941D01*
X1044Y941D02*
X1126Y941D01*
X43Y940D02*
X125Y940D01*
X1044Y940D02*
X1126Y940D01*
X43Y939D02*
X125Y939D01*
X1044Y939D02*
X1126Y939D01*
X43Y938D02*
X125Y938D01*
X1044Y938D02*
X1126Y938D01*
X42Y937D02*
X125Y937D01*
X1044Y937D02*
X1126Y937D01*
X42Y936D02*
X125Y936D01*
X1044Y936D02*
X1126Y936D01*
X42Y935D02*
X125Y935D01*
X1044Y935D02*
X1126Y935D01*
X42Y934D02*
X125Y934D01*
X1043Y934D02*
X1126Y934D01*
X42Y933D02*
X125Y933D01*
X1043Y933D02*
X1126Y933D01*
X42Y932D02*
X125Y932D01*
X1043Y932D02*
X1126Y932D01*
X42Y931D02*
X125Y931D01*
X1044Y931D02*
X1126Y931D01*
X42Y930D02*
X125Y930D01*
X1044Y930D02*
X1126Y930D01*
X42Y929D02*
X125Y929D01*
X1044Y929D02*
X1126Y929D01*
X42Y928D02*
X125Y928D01*
X1044Y928D02*
X1126Y928D01*
X43Y927D02*
X125Y927D01*
X1044Y927D02*
X1126Y927D01*
X43Y926D02*
X125Y926D01*
X1044Y926D02*
X1126Y926D01*
X43Y925D02*
X124Y925D01*
X1044Y925D02*
X1126Y925D01*
X43Y924D02*
X124Y924D01*
X1044Y924D02*
X1126Y924D01*
X43Y923D02*
X124Y923D01*
X1045Y923D02*
X1125Y923D01*
X44Y922D02*
X124Y922D01*
X1045Y922D02*
X1125Y922D01*
X44Y921D02*
X124Y921D01*
X1045Y921D02*
X1125Y921D01*
X44Y920D02*
X123Y920D01*
X1045Y920D02*
X1125Y920D01*
X45Y919D02*
X123Y919D01*
X1046Y919D02*
X1124Y919D01*
X45Y918D02*
X123Y918D01*
X1046Y918D02*
X1124Y918D01*
X45Y917D02*
X122Y917D01*
X1046Y917D02*
X1123Y917D01*
X46Y916D02*
X122Y916D01*
X1047Y916D02*
X1123Y916D01*
X46Y915D02*
X121Y915D01*
X1047Y915D02*
X1123Y915D01*
X47Y914D02*
X121Y914D01*
X1048Y914D02*
X1122Y914D01*
X47Y913D02*
X120Y913D01*
X1048Y913D02*
X1122Y913D01*
X48Y912D02*
X120Y912D01*
X1049Y912D02*
X1121Y912D01*
X48Y911D02*
X119Y911D01*
X1050Y911D02*
X1120Y911D01*
X49Y910D02*
X119Y910D01*
X1050Y910D02*
X1120Y910D01*
X50Y909D02*
X118Y909D01*
X1051Y909D02*
X1119Y909D01*
X50Y908D02*
X117Y908D01*
X1052Y908D02*
X1118Y908D01*
X51Y907D02*
X116Y907D01*
X1052Y907D02*
X1118Y907D01*
X52Y906D02*
X116Y906D01*
X1053Y906D02*
X1117Y906D01*
X53Y905D02*
X115Y905D01*
X1054Y905D02*
X1116Y905D01*
X54Y904D02*
X114Y904D01*
X1055Y904D02*
X1115Y904D01*
X54Y903D02*
X113Y903D01*
X1056Y903D02*
X1114Y903D01*
X56Y902D02*
X112Y902D01*
X1057Y902D02*
X1113Y902D01*
X57Y901D02*
X111Y901D01*
X1058Y901D02*
X1112Y901D01*
X58Y900D02*
X110Y900D01*
X1059Y900D02*
X1111Y900D01*
X59Y899D02*
X108Y899D01*
X1060Y899D02*
X1109Y899D01*
X61Y898D02*
X107Y898D01*
X1062Y898D02*
X1108Y898D01*
X62Y897D02*
X105Y897D01*
X1063Y897D02*
X1107Y897D01*
X64Y896D02*
X104Y896D01*
X1065Y896D02*
X1105Y896D01*
X66Y895D02*
X102Y895D01*
X1067Y895D02*
X1103Y895D01*
X68Y894D02*
X100Y894D01*
X1069Y894D02*
X1101Y894D01*
X70Y893D02*
X97Y893D01*
X1072Y893D02*
X1098Y893D01*
X74Y892D02*
X94Y892D01*
X1075Y892D02*
X1095Y892D01*
X79Y891D02*
X88Y891D01*
X1080Y891D02*
X1090Y891D01*
X78Y874D02*
X89Y874D01*
X1079Y874D02*
X1091Y874D01*
X73Y873D02*
X94Y873D01*
X1074Y873D02*
X1095Y873D01*
X70Y872D02*
X98Y872D01*
X1071Y872D02*
X1099Y872D01*
X67Y871D02*
X100Y871D01*
X1069Y871D02*
X1101Y871D01*
X65Y870D02*
X102Y870D01*
X1067Y870D02*
X1103Y870D01*
X63Y869D02*
X104Y869D01*
X1065Y869D02*
X1105Y869D01*
X62Y868D02*
X106Y868D01*
X1063Y868D02*
X1107Y868D01*
X60Y867D02*
X107Y867D01*
X1062Y867D02*
X1108Y867D01*
X59Y866D02*
X108Y866D01*
X1060Y866D02*
X1110Y866D01*
X58Y865D02*
X110Y865D01*
X1059Y865D02*
X1111Y865D01*
X56Y864D02*
X111Y864D01*
X1058Y864D02*
X1112Y864D01*
X55Y863D02*
X112Y863D01*
X1057Y863D02*
X1113Y863D01*
X54Y862D02*
X113Y862D01*
X1055Y862D02*
X1114Y862D01*
X53Y861D02*
X114Y861D01*
X1055Y861D02*
X1115Y861D01*
X52Y860D02*
X115Y860D01*
X1054Y860D02*
X1116Y860D01*
X52Y859D02*
X116Y859D01*
X1053Y859D02*
X1117Y859D01*
X51Y858D02*
X117Y858D01*
X1052Y858D02*
X1118Y858D01*
X50Y857D02*
X117Y857D01*
X1051Y857D02*
X1119Y857D01*
X49Y856D02*
X118Y856D01*
X1051Y856D02*
X1119Y856D01*
X49Y855D02*
X119Y855D01*
X1050Y855D02*
X1120Y855D01*
X48Y854D02*
X119Y854D01*
X1049Y854D02*
X1120Y854D01*
X48Y853D02*
X120Y853D01*
X1049Y853D02*
X1121Y853D01*
X47Y852D02*
X120Y852D01*
X1048Y852D02*
X1122Y852D01*
X47Y851D02*
X121Y851D01*
X1048Y851D02*
X1122Y851D01*
X46Y850D02*
X121Y850D01*
X1047Y850D02*
X1123Y850D01*
X46Y849D02*
X122Y849D01*
X1047Y849D02*
X1123Y849D01*
X45Y848D02*
X122Y848D01*
X1046Y848D02*
X1124Y848D01*
X45Y847D02*
X123Y847D01*
X1046Y847D02*
X1124Y847D01*
X44Y846D02*
X123Y846D01*
X1046Y846D02*
X1124Y846D01*
X44Y845D02*
X123Y845D01*
X1045Y845D02*
X1125Y845D01*
X44Y844D02*
X124Y844D01*
X1045Y844D02*
X1125Y844D01*
X44Y843D02*
X124Y843D01*
X1045Y843D02*
X1125Y843D01*
X43Y842D02*
X124Y842D01*
X1045Y842D02*
X1125Y842D01*
X43Y841D02*
X124Y841D01*
X1044Y841D02*
X1126Y841D01*
X43Y840D02*
X124Y840D01*
X1044Y840D02*
X1126Y840D01*
X43Y839D02*
X125Y839D01*
X1044Y839D02*
X1126Y839D01*
X43Y838D02*
X125Y838D01*
X1044Y838D02*
X1126Y838D01*
X42Y837D02*
X125Y837D01*
X1044Y837D02*
X1126Y837D01*
X42Y836D02*
X125Y836D01*
X1044Y836D02*
X1126Y836D01*
X42Y835D02*
X125Y835D01*
X1044Y835D02*
X1126Y835D01*
X42Y834D02*
X125Y834D01*
X1043Y834D02*
X1126Y834D01*
X42Y833D02*
X125Y833D01*
X1043Y833D02*
X1126Y833D01*
X42Y832D02*
X125Y832D01*
X1043Y832D02*
X1126Y832D01*
X42Y831D02*
X125Y831D01*
X1043Y831D02*
X1126Y831D01*
X42Y830D02*
X125Y830D01*
X1044Y830D02*
X1126Y830D01*
X42Y829D02*
X125Y829D01*
X1044Y829D02*
X1126Y829D01*
X42Y828D02*
X125Y828D01*
X1044Y828D02*
X1126Y828D01*
X43Y827D02*
X125Y827D01*
X1044Y827D02*
X1126Y827D01*
X43Y826D02*
X125Y826D01*
X1044Y826D02*
X1126Y826D01*
X43Y825D02*
X124Y825D01*
X1044Y825D02*
X1126Y825D01*
X43Y824D02*
X124Y824D01*
X1044Y824D02*
X1126Y824D01*
X43Y823D02*
X124Y823D01*
X1045Y823D02*
X1125Y823D01*
X44Y822D02*
X124Y822D01*
X1045Y822D02*
X1125Y822D01*
X44Y821D02*
X124Y821D01*
X1045Y821D02*
X1125Y821D01*
X44Y820D02*
X123Y820D01*
X1045Y820D02*
X1125Y820D01*
X44Y819D02*
X123Y819D01*
X1046Y819D02*
X1124Y819D01*
X45Y818D02*
X123Y818D01*
X1046Y818D02*
X1124Y818D01*
X45Y817D02*
X122Y817D01*
X1046Y817D02*
X1123Y817D01*
X46Y816D02*
X122Y816D01*
X1047Y816D02*
X1123Y816D01*
X46Y815D02*
X121Y815D01*
X1047Y815D02*
X1123Y815D01*
X47Y814D02*
X121Y814D01*
X1048Y814D02*
X1122Y814D01*
X47Y813D02*
X120Y813D01*
X1048Y813D02*
X1122Y813D01*
X48Y812D02*
X120Y812D01*
X1049Y812D02*
X1121Y812D01*
X48Y811D02*
X119Y811D01*
X1049Y811D02*
X1120Y811D01*
X49Y810D02*
X119Y810D01*
X1050Y810D02*
X1120Y810D01*
X49Y809D02*
X118Y809D01*
X1051Y809D02*
X1119Y809D01*
X50Y808D02*
X117Y808D01*
X1051Y808D02*
X1118Y808D01*
X51Y807D02*
X116Y807D01*
X1052Y807D02*
X1118Y807D01*
X52Y806D02*
X116Y806D01*
X1053Y806D02*
X1117Y806D01*
X53Y805D02*
X115Y805D01*
X1054Y805D02*
X1116Y805D01*
X53Y804D02*
X114Y804D01*
X1055Y804D02*
X1115Y804D01*
X54Y803D02*
X113Y803D01*
X1056Y803D02*
X1114Y803D01*
X55Y802D02*
X112Y802D01*
X1057Y802D02*
X1113Y802D01*
X56Y801D02*
X111Y801D01*
X1058Y801D02*
X1112Y801D01*
X58Y800D02*
X110Y800D01*
X1059Y800D02*
X1111Y800D01*
X59Y799D02*
X108Y799D01*
X1060Y799D02*
X1110Y799D01*
X60Y798D02*
X107Y798D01*
X1062Y798D02*
X1108Y798D01*
X62Y797D02*
X106Y797D01*
X1063Y797D02*
X1107Y797D01*
X64Y796D02*
X104Y796D01*
X1065Y796D02*
X1105Y796D01*
X65Y795D02*
X102Y795D01*
X1067Y795D02*
X1103Y795D01*
X67Y794D02*
X100Y794D01*
X1069Y794D02*
X1101Y794D01*
X70Y793D02*
X97Y793D01*
X1071Y793D02*
X1099Y793D01*
X73Y792D02*
X94Y792D01*
X1075Y792D02*
X1095Y792D01*
X78Y791D02*
X89Y791D01*
X1080Y791D02*
X1090Y791D01*
X79Y774D02*
X89Y774D01*
X1080Y774D02*
X1090Y774D01*
X74Y773D02*
X94Y773D01*
X1075Y773D02*
X1095Y773D01*
X70Y772D02*
X97Y772D01*
X1071Y772D02*
X1098Y772D01*
X68Y771D02*
X100Y771D01*
X1069Y771D02*
X1101Y771D01*
X66Y770D02*
X102Y770D01*
X1067Y770D02*
X1103Y770D01*
X64Y769D02*
X104Y769D01*
X1065Y769D02*
X1105Y769D01*
X62Y768D02*
X105Y768D01*
X1063Y768D02*
X1107Y768D01*
X60Y767D02*
X107Y767D01*
X1062Y767D02*
X1108Y767D01*
X59Y766D02*
X108Y766D01*
X1060Y766D02*
X1110Y766D01*
X58Y765D02*
X110Y765D01*
X1059Y765D02*
X1111Y765D01*
X57Y764D02*
X111Y764D01*
X1058Y764D02*
X1112Y764D01*
X55Y763D02*
X112Y763D01*
X1057Y763D02*
X1113Y763D01*
X54Y762D02*
X113Y762D01*
X1056Y762D02*
X1114Y762D01*
X53Y761D02*
X114Y761D01*
X1055Y761D02*
X1115Y761D01*
X53Y760D02*
X115Y760D01*
X1054Y760D02*
X1116Y760D01*
X52Y759D02*
X116Y759D01*
X1053Y759D02*
X1117Y759D01*
X51Y758D02*
X116Y758D01*
X1052Y758D02*
X1118Y758D01*
X50Y757D02*
X117Y757D01*
X1051Y757D02*
X1118Y757D01*
X50Y756D02*
X118Y756D01*
X1051Y756D02*
X1119Y756D01*
X49Y755D02*
X119Y755D01*
X1050Y755D02*
X1120Y755D01*
X48Y754D02*
X119Y754D01*
X1049Y754D02*
X1120Y754D01*
X48Y753D02*
X120Y753D01*
X1049Y753D02*
X1121Y753D01*
X47Y752D02*
X120Y752D01*
X1048Y752D02*
X1122Y752D01*
X47Y751D02*
X121Y751D01*
X1048Y751D02*
X1122Y751D01*
X46Y750D02*
X121Y750D01*
X1047Y750D02*
X1123Y750D01*
X46Y749D02*
X122Y749D01*
X1047Y749D02*
X1123Y749D01*
X45Y748D02*
X122Y748D01*
X1046Y748D02*
X1123Y748D01*
X45Y747D02*
X123Y747D01*
X1046Y747D02*
X1124Y747D01*
X44Y746D02*
X123Y746D01*
X1046Y746D02*
X1124Y746D01*
X44Y745D02*
X123Y745D01*
X1045Y745D02*
X1125Y745D01*
X44Y744D02*
X124Y744D01*
X1045Y744D02*
X1125Y744D01*
X44Y743D02*
X124Y743D01*
X1045Y743D02*
X1125Y743D01*
X43Y742D02*
X124Y742D01*
X1045Y742D02*
X1125Y742D01*
X43Y741D02*
X124Y741D01*
X1044Y741D02*
X1126Y741D01*
X43Y740D02*
X124Y740D01*
X1044Y740D02*
X1126Y740D01*
X43Y739D02*
X125Y739D01*
X1044Y739D02*
X1126Y739D01*
X43Y738D02*
X125Y738D01*
X1044Y738D02*
X1126Y738D01*
X42Y737D02*
X125Y737D01*
X1044Y737D02*
X1126Y737D01*
X42Y736D02*
X125Y736D01*
X1044Y736D02*
X1126Y736D01*
X42Y735D02*
X125Y735D01*
X1044Y735D02*
X1126Y735D01*
X42Y734D02*
X125Y734D01*
X1043Y734D02*
X1126Y734D01*
X42Y733D02*
X125Y733D01*
X1043Y733D02*
X1126Y733D01*
X42Y732D02*
X125Y732D01*
X1043Y732D02*
X1126Y732D01*
X42Y731D02*
X125Y731D01*
X1043Y731D02*
X1126Y731D01*
X42Y730D02*
X125Y730D01*
X1044Y730D02*
X1126Y730D01*
X42Y729D02*
X125Y729D01*
X1044Y729D02*
X1126Y729D01*
X42Y728D02*
X125Y728D01*
X1044Y728D02*
X1126Y728D01*
X43Y727D02*
X125Y727D01*
X1044Y727D02*
X1126Y727D01*
X43Y726D02*
X125Y726D01*
X1044Y726D02*
X1126Y726D01*
X43Y725D02*
X124Y725D01*
X1044Y725D02*
X1126Y725D01*
X43Y724D02*
X124Y724D01*
X1044Y724D02*
X1126Y724D01*
X43Y723D02*
X124Y723D01*
X1045Y723D02*
X1125Y723D01*
X44Y722D02*
X124Y722D01*
X1045Y722D02*
X1125Y722D01*
X44Y721D02*
X124Y721D01*
X1045Y721D02*
X1125Y721D01*
X44Y720D02*
X123Y720D01*
X1045Y720D02*
X1125Y720D01*
X44Y719D02*
X123Y719D01*
X1046Y719D02*
X1124Y719D01*
X45Y718D02*
X123Y718D01*
X1046Y718D02*
X1124Y718D01*
X45Y717D02*
X122Y717D01*
X1046Y717D02*
X1124Y717D01*
X46Y716D02*
X122Y716D01*
X1047Y716D02*
X1123Y716D01*
X46Y715D02*
X121Y715D01*
X1047Y715D02*
X1123Y715D01*
X46Y714D02*
X121Y714D01*
X1048Y714D02*
X1122Y714D01*
X47Y713D02*
X120Y713D01*
X1048Y713D02*
X1122Y713D01*
X48Y712D02*
X120Y712D01*
X1049Y712D02*
X1121Y712D01*
X48Y711D02*
X119Y711D01*
X1049Y711D02*
X1121Y711D01*
X49Y710D02*
X119Y710D01*
X1050Y710D02*
X1120Y710D01*
X49Y709D02*
X118Y709D01*
X1051Y709D02*
X1119Y709D01*
X50Y708D02*
X117Y708D01*
X1051Y708D02*
X1119Y708D01*
X51Y707D02*
X117Y707D01*
X1052Y707D02*
X1118Y707D01*
X52Y706D02*
X116Y706D01*
X1053Y706D02*
X1117Y706D01*
X52Y705D02*
X115Y705D01*
X1054Y705D02*
X1116Y705D01*
X53Y704D02*
X114Y704D01*
X1055Y704D02*
X1115Y704D01*
X54Y703D02*
X113Y703D01*
X1055Y703D02*
X1114Y703D01*
X55Y702D02*
X112Y702D01*
X1056Y702D02*
X1113Y702D01*
X56Y701D02*
X111Y701D01*
X1058Y701D02*
X1112Y701D01*
X58Y700D02*
X110Y700D01*
X1059Y700D02*
X1111Y700D01*
X59Y699D02*
X109Y699D01*
X1060Y699D02*
X1110Y699D01*
X60Y698D02*
X107Y698D01*
X1061Y698D02*
X1108Y698D01*
X62Y697D02*
X106Y697D01*
X1063Y697D02*
X1107Y697D01*
X63Y696D02*
X104Y696D01*
X1065Y696D02*
X1105Y696D01*
X65Y695D02*
X102Y695D01*
X1066Y695D02*
X1104Y695D01*
X67Y694D02*
X100Y694D01*
X1068Y694D02*
X1101Y694D01*
X70Y693D02*
X98Y693D01*
X1071Y693D02*
X1099Y693D01*
X73Y692D02*
X94Y692D01*
X1074Y692D02*
X1096Y692D01*
X78Y691D02*
X90Y691D01*
X1079Y691D02*
X1091Y691D01*
X80Y674D02*
X88Y674D01*
X1081Y674D02*
X1089Y674D01*
X74Y673D02*
X93Y673D01*
X1075Y673D02*
X1094Y673D01*
X71Y672D02*
X97Y672D01*
X1072Y672D02*
X1098Y672D01*
X68Y671D02*
X100Y671D01*
X1069Y671D02*
X1101Y671D01*
X66Y670D02*
X102Y670D01*
X1067Y670D02*
X1103Y670D01*
X64Y669D02*
X104Y669D01*
X1065Y669D02*
X1105Y669D01*
X62Y668D02*
X105Y668D01*
X1063Y668D02*
X1106Y668D01*
X61Y667D02*
X107Y667D01*
X1062Y667D02*
X1108Y667D01*
X59Y666D02*
X108Y666D01*
X1060Y666D02*
X1109Y666D01*
X58Y665D02*
X110Y665D01*
X1059Y665D02*
X1111Y665D01*
X57Y664D02*
X111Y664D01*
X1058Y664D02*
X1112Y664D01*
X56Y663D02*
X112Y663D01*
X1057Y663D02*
X1113Y663D01*
X54Y662D02*
X113Y662D01*
X1056Y662D02*
X1114Y662D01*
X54Y661D02*
X114Y661D01*
X1055Y661D02*
X1115Y661D01*
X53Y660D02*
X115Y660D01*
X1054Y660D02*
X1116Y660D01*
X52Y659D02*
X116Y659D01*
X1053Y659D02*
X1117Y659D01*
X51Y658D02*
X116Y658D01*
X1052Y658D02*
X1118Y658D01*
X50Y657D02*
X117Y657D01*
X1052Y657D02*
X1118Y657D01*
X50Y656D02*
X118Y656D01*
X1051Y656D02*
X1119Y656D01*
X49Y655D02*
X118Y655D01*
X1050Y655D02*
X1120Y655D01*
X48Y654D02*
X119Y654D01*
X1050Y654D02*
X1120Y654D01*
X48Y653D02*
X120Y653D01*
X1049Y653D02*
X1121Y653D01*
X47Y652D02*
X120Y652D01*
X1048Y652D02*
X1122Y652D01*
X47Y651D02*
X121Y651D01*
X1048Y651D02*
X1122Y651D01*
X46Y650D02*
X121Y650D01*
X1047Y650D02*
X1123Y650D01*
X46Y649D02*
X122Y649D01*
X1047Y649D02*
X1123Y649D01*
X45Y648D02*
X122Y648D01*
X1046Y648D02*
X1123Y648D01*
X45Y647D02*
X123Y647D01*
X1046Y647D02*
X1124Y647D01*
X45Y646D02*
X123Y646D01*
X1046Y646D02*
X1124Y646D01*
X44Y645D02*
X123Y645D01*
X1045Y645D02*
X1124Y645D01*
X44Y644D02*
X124Y644D01*
X1045Y644D02*
X1125Y644D01*
X44Y643D02*
X124Y643D01*
X1045Y643D02*
X1125Y643D01*
X43Y642D02*
X124Y642D01*
X1045Y642D02*
X1125Y642D01*
X43Y641D02*
X124Y641D01*
X1044Y641D02*
X1125Y641D01*
X43Y640D02*
X124Y640D01*
X1044Y640D02*
X1126Y640D01*
X43Y639D02*
X125Y639D01*
X1044Y639D02*
X1126Y639D01*
X43Y638D02*
X125Y638D01*
X1044Y638D02*
X1126Y638D01*
X43Y637D02*
X125Y637D01*
X1044Y637D02*
X1126Y637D01*
X42Y636D02*
X125Y636D01*
X1044Y636D02*
X1126Y636D01*
X42Y635D02*
X125Y635D01*
X1044Y635D02*
X1126Y635D01*
X42Y634D02*
X125Y634D01*
X1044Y634D02*
X1126Y634D01*
X42Y633D02*
X125Y633D01*
X1043Y633D02*
X1126Y633D01*
X42Y632D02*
X125Y632D01*
X1043Y632D02*
X1126Y632D01*
X42Y631D02*
X125Y631D01*
X1043Y631D02*
X1126Y631D01*
X42Y630D02*
X125Y630D01*
X1044Y630D02*
X1126Y630D01*
X42Y629D02*
X125Y629D01*
X1044Y629D02*
X1126Y629D01*
X42Y628D02*
X125Y628D01*
X1044Y628D02*
X1126Y628D01*
X43Y627D02*
X125Y627D01*
X1044Y627D02*
X1126Y627D01*
X43Y626D02*
X125Y626D01*
X1044Y626D02*
X1126Y626D01*
X43Y625D02*
X125Y625D01*
X1044Y625D02*
X1126Y625D01*
X43Y624D02*
X124Y624D01*
X1044Y624D02*
X1126Y624D01*
X43Y623D02*
X124Y623D01*
X1045Y623D02*
X1125Y623D01*
X44Y622D02*
X124Y622D01*
X1045Y622D02*
X1125Y622D01*
X44Y621D02*
X124Y621D01*
X1045Y621D02*
X1125Y621D01*
X44Y620D02*
X123Y620D01*
X1045Y620D02*
X1125Y620D01*
X44Y619D02*
X123Y619D01*
X1046Y619D02*
X1124Y619D01*
X45Y618D02*
X123Y618D01*
X1046Y618D02*
X1124Y618D01*
X45Y617D02*
X122Y617D01*
X1046Y617D02*
X1124Y617D01*
X45Y616D02*
X122Y616D01*
X1047Y616D02*
X1123Y616D01*
X46Y615D02*
X121Y615D01*
X1047Y615D02*
X1123Y615D01*
X46Y614D02*
X121Y614D01*
X1048Y614D02*
X1122Y614D01*
X47Y613D02*
X121Y613D01*
X1048Y613D02*
X1122Y613D01*
X47Y612D02*
X120Y612D01*
X1049Y612D02*
X1121Y612D01*
X48Y611D02*
X119Y611D01*
X1049Y611D02*
X1121Y611D01*
X49Y610D02*
X119Y610D01*
X1050Y610D02*
X1120Y610D01*
X49Y609D02*
X118Y609D01*
X1051Y609D02*
X1119Y609D01*
X50Y608D02*
X117Y608D01*
X1051Y608D02*
X1119Y608D01*
X51Y607D02*
X117Y607D01*
X1052Y607D02*
X1118Y607D01*
X51Y606D02*
X116Y606D01*
X1053Y606D02*
X1117Y606D01*
X52Y605D02*
X115Y605D01*
X1054Y605D02*
X1116Y605D01*
X53Y604D02*
X114Y604D01*
X1054Y604D02*
X1115Y604D01*
X54Y603D02*
X113Y603D01*
X1055Y603D02*
X1115Y603D01*
X55Y602D02*
X112Y602D01*
X1056Y602D02*
X1114Y602D01*
X56Y601D02*
X111Y601D01*
X1057Y601D02*
X1112Y601D01*
X57Y600D02*
X110Y600D01*
X1059Y600D02*
X1111Y600D01*
X59Y599D02*
X109Y599D01*
X1060Y599D02*
X1110Y599D01*
X60Y598D02*
X107Y598D01*
X1061Y598D02*
X1109Y598D01*
X62Y597D02*
X106Y597D01*
X1063Y597D02*
X1107Y597D01*
X63Y596D02*
X104Y596D01*
X1064Y596D02*
X1106Y596D01*
X65Y595D02*
X103Y595D01*
X1066Y595D02*
X1104Y595D01*
X67Y594D02*
X100Y594D01*
X1068Y594D02*
X1102Y594D01*
X69Y593D02*
X98Y593D01*
X1071Y593D02*
X1099Y593D01*
X72Y592D02*
X95Y592D01*
X1074Y592D02*
X1096Y592D01*
X77Y591D02*
X91Y591D01*
X1078Y591D02*
X1092Y591D01*
X81Y574D02*
X87Y574D01*
X1082Y574D02*
X1088Y574D01*
X75Y573D02*
X93Y573D01*
X1076Y573D02*
X1094Y573D01*
X71Y572D02*
X97Y572D01*
X1072Y572D02*
X1098Y572D01*
X68Y571D02*
X99Y571D01*
X1069Y571D02*
X1101Y571D01*
X66Y570D02*
X101Y570D01*
X1067Y570D02*
X1103Y570D01*
X64Y569D02*
X103Y569D01*
X1065Y569D02*
X1105Y569D01*
X62Y568D02*
X105Y568D01*
X1064Y568D02*
X1106Y568D01*
X61Y567D02*
X107Y567D01*
X1062Y567D02*
X1108Y567D01*
X59Y566D02*
X108Y566D01*
X1061Y566D02*
X1109Y566D01*
X58Y565D02*
X109Y565D01*
X1059Y565D02*
X1111Y565D01*
X57Y564D02*
X111Y564D01*
X1058Y564D02*
X1112Y564D01*
X56Y563D02*
X112Y563D01*
X1057Y563D02*
X1113Y563D01*
X55Y562D02*
X113Y562D01*
X1056Y562D02*
X1114Y562D01*
X54Y561D02*
X114Y561D01*
X1055Y561D02*
X1115Y561D01*
X53Y560D02*
X115Y560D01*
X1054Y560D02*
X1116Y560D01*
X52Y559D02*
X116Y559D01*
X1053Y559D02*
X1117Y559D01*
X51Y558D02*
X116Y558D01*
X1052Y558D02*
X1118Y558D01*
X50Y557D02*
X117Y557D01*
X1052Y557D02*
X1118Y557D01*
X50Y556D02*
X118Y556D01*
X1051Y556D02*
X1119Y556D01*
X49Y555D02*
X118Y555D01*
X1050Y555D02*
X1120Y555D01*
X48Y554D02*
X119Y554D01*
X1050Y554D02*
X1120Y554D01*
X48Y553D02*
X120Y553D01*
X1049Y553D02*
X1121Y553D01*
X47Y552D02*
X120Y552D01*
X1048Y552D02*
X1121Y552D01*
X47Y551D02*
X121Y551D01*
X1048Y551D02*
X1122Y551D01*
X46Y550D02*
X121Y550D01*
X1047Y550D02*
X1122Y550D01*
X46Y549D02*
X122Y549D01*
X1047Y549D02*
X1123Y549D01*
X45Y548D02*
X122Y548D01*
X1047Y548D02*
X1123Y548D01*
X45Y547D02*
X122Y547D01*
X1046Y547D02*
X1124Y547D01*
X45Y546D02*
X123Y546D01*
X1046Y546D02*
X1124Y546D01*
X44Y545D02*
X123Y545D01*
X1045Y545D02*
X1124Y545D01*
X44Y544D02*
X123Y544D01*
X1045Y544D02*
X1125Y544D01*
X44Y543D02*
X124Y543D01*
X1045Y543D02*
X1125Y543D01*
X43Y542D02*
X124Y542D01*
X1045Y542D02*
X1125Y542D01*
X43Y541D02*
X124Y541D01*
X1044Y541D02*
X1125Y541D01*
X43Y540D02*
X124Y540D01*
X1044Y540D02*
X1126Y540D01*
X43Y539D02*
X125Y539D01*
X1044Y539D02*
X1126Y539D01*
X43Y538D02*
X125Y538D01*
X1044Y538D02*
X1126Y538D01*
X43Y537D02*
X125Y537D01*
X1044Y537D02*
X1126Y537D01*
X42Y536D02*
X125Y536D01*
X1044Y536D02*
X1126Y536D01*
X42Y535D02*
X125Y535D01*
X1044Y535D02*
X1126Y535D01*
X42Y534D02*
X125Y534D01*
X1044Y534D02*
X1126Y534D01*
X42Y533D02*
X125Y533D01*
X1043Y533D02*
X1126Y533D01*
X42Y532D02*
X125Y532D01*
X1043Y532D02*
X1126Y532D01*
X42Y531D02*
X125Y531D01*
X1043Y531D02*
X1126Y531D01*
X42Y530D02*
X125Y530D01*
X1044Y530D02*
X1126Y530D01*
X42Y529D02*
X125Y529D01*
X1044Y529D02*
X1126Y529D01*
X42Y528D02*
X125Y528D01*
X1044Y528D02*
X1126Y528D01*
X43Y527D02*
X125Y527D01*
X1044Y527D02*
X1126Y527D01*
X43Y526D02*
X125Y526D01*
X1044Y526D02*
X1126Y526D01*
X43Y525D02*
X125Y525D01*
X1044Y525D02*
X1126Y525D01*
X43Y524D02*
X124Y524D01*
X1044Y524D02*
X1126Y524D01*
X43Y523D02*
X124Y523D01*
X1045Y523D02*
X1125Y523D01*
X44Y522D02*
X124Y522D01*
X1045Y522D02*
X1125Y522D01*
X44Y521D02*
X124Y521D01*
X1045Y521D02*
X1125Y521D01*
X44Y520D02*
X123Y520D01*
X1045Y520D02*
X1125Y520D01*
X44Y519D02*
X123Y519D01*
X1046Y519D02*
X1124Y519D01*
X45Y518D02*
X123Y518D01*
X1046Y518D02*
X1124Y518D01*
X45Y517D02*
X122Y517D01*
X1046Y517D02*
X1124Y517D01*
X45Y516D02*
X122Y516D01*
X1047Y516D02*
X1123Y516D01*
X46Y515D02*
X122Y515D01*
X1047Y515D02*
X1123Y515D01*
X46Y514D02*
X121Y514D01*
X1048Y514D02*
X1122Y514D01*
X47Y513D02*
X121Y513D01*
X1048Y513D02*
X1122Y513D01*
X47Y512D02*
X120Y512D01*
X1049Y512D02*
X1121Y512D01*
X48Y511D02*
X119Y511D01*
X1049Y511D02*
X1121Y511D01*
X49Y510D02*
X119Y510D01*
X1050Y510D02*
X1120Y510D01*
X49Y509D02*
X118Y509D01*
X1050Y509D02*
X1119Y509D01*
X50Y508D02*
X118Y508D01*
X1051Y508D02*
X1119Y508D01*
X51Y507D02*
X117Y507D01*
X1052Y507D02*
X1118Y507D01*
X51Y506D02*
X116Y506D01*
X1053Y506D02*
X1117Y506D01*
X52Y505D02*
X115Y505D01*
X1053Y505D02*
X1116Y505D01*
X53Y504D02*
X114Y504D01*
X1054Y504D02*
X1116Y504D01*
X54Y503D02*
X113Y503D01*
X1055Y503D02*
X1115Y503D01*
X55Y502D02*
X112Y502D01*
X1056Y502D02*
X1114Y502D01*
X56Y501D02*
X111Y501D01*
X1057Y501D02*
X1113Y501D01*
X57Y500D02*
X110Y500D01*
X1058Y500D02*
X1111Y500D01*
X59Y499D02*
X109Y499D01*
X1060Y499D02*
X1110Y499D01*
X60Y498D02*
X108Y498D01*
X1061Y498D02*
X1109Y498D01*
X61Y497D02*
X106Y497D01*
X1063Y497D02*
X1107Y497D01*
X63Y496D02*
X104Y496D01*
X1064Y496D02*
X1106Y496D01*
X65Y495D02*
X103Y495D01*
X1066Y495D02*
X1104Y495D01*
X67Y494D02*
X101Y494D01*
X1068Y494D02*
X1102Y494D01*
X69Y493D02*
X98Y493D01*
X1070Y493D02*
X1100Y493D01*
X72Y492D02*
X95Y492D01*
X1073Y492D02*
X1097Y492D01*
X76Y491D02*
X91Y491D01*
X1077Y491D02*
X1093Y491D01*
X83Y474D02*
X85Y474D01*
X1084Y474D02*
X1086Y474D01*
X75Y473D02*
X92Y473D01*
X1076Y473D02*
X1094Y473D01*
X71Y472D02*
X96Y472D01*
X1072Y472D02*
X1097Y472D01*
X68Y471D02*
X99Y471D01*
X1070Y471D02*
X1100Y471D01*
X66Y470D02*
X101Y470D01*
X1067Y470D02*
X1102Y470D01*
X64Y469D02*
X103Y469D01*
X1065Y469D02*
X1104Y469D01*
X63Y468D02*
X105Y468D01*
X1064Y468D02*
X1106Y468D01*
X61Y467D02*
X106Y467D01*
X1062Y467D02*
X1108Y467D01*
X60Y466D02*
X108Y466D01*
X1061Y466D02*
X1109Y466D01*
X58Y465D02*
X109Y465D01*
X1059Y465D02*
X1110Y465D01*
X57Y464D02*
X110Y464D01*
X1058Y464D02*
X1112Y464D01*
X56Y463D02*
X112Y463D01*
X1057Y463D02*
X1113Y463D01*
X55Y462D02*
X113Y462D01*
X1056Y462D02*
X1114Y462D01*
X54Y461D02*
X114Y461D01*
X1055Y461D02*
X1115Y461D01*
X53Y460D02*
X115Y460D01*
X1054Y460D02*
X1116Y460D01*
X52Y459D02*
X115Y459D01*
X1053Y459D02*
X1117Y459D01*
X51Y458D02*
X116Y458D01*
X1052Y458D02*
X1117Y458D01*
X51Y457D02*
X117Y457D01*
X1052Y457D02*
X1118Y457D01*
X50Y456D02*
X118Y456D01*
X1051Y456D02*
X1119Y456D01*
X49Y455D02*
X118Y455D01*
X1050Y455D02*
X1120Y455D01*
X48Y454D02*
X119Y454D01*
X1050Y454D02*
X1120Y454D01*
X48Y453D02*
X120Y453D01*
X1049Y453D02*
X1121Y453D01*
X47Y452D02*
X120Y452D01*
X1048Y452D02*
X1121Y452D01*
X47Y451D02*
X121Y451D01*
X1048Y451D02*
X1122Y451D01*
X46Y450D02*
X121Y450D01*
X1047Y450D02*
X1122Y450D01*
X46Y449D02*
X122Y449D01*
X1047Y449D02*
X1123Y449D01*
X45Y448D02*
X122Y448D01*
X1047Y448D02*
X1123Y448D01*
X45Y447D02*
X122Y447D01*
X1046Y447D02*
X1124Y447D01*
X45Y446D02*
X123Y446D01*
X1046Y446D02*
X1124Y446D01*
X44Y445D02*
X123Y445D01*
X1046Y445D02*
X1124Y445D01*
X44Y444D02*
X123Y444D01*
X1045Y444D02*
X1125Y444D01*
X44Y443D02*
X124Y443D01*
X1045Y443D02*
X1125Y443D01*
X43Y442D02*
X124Y442D01*
X1045Y442D02*
X1125Y442D01*
X43Y441D02*
X124Y441D01*
X1044Y441D02*
X1125Y441D01*
X43Y440D02*
X124Y440D01*
X1044Y440D02*
X1126Y440D01*
X43Y439D02*
X125Y439D01*
X1044Y439D02*
X1126Y439D01*
X43Y438D02*
X125Y438D01*
X1044Y438D02*
X1126Y438D01*
X43Y437D02*
X125Y437D01*
X1044Y437D02*
X1126Y437D01*
X42Y436D02*
X125Y436D01*
X1044Y436D02*
X1126Y436D01*
X42Y435D02*
X125Y435D01*
X1044Y435D02*
X1126Y435D01*
X42Y434D02*
X125Y434D01*
X1044Y434D02*
X1126Y434D01*
X42Y433D02*
X125Y433D01*
X1043Y433D02*
X1126Y433D01*
X42Y432D02*
X125Y432D01*
X1043Y432D02*
X1126Y432D01*
X42Y431D02*
X125Y431D01*
X1043Y431D02*
X1126Y431D01*
X42Y430D02*
X125Y430D01*
X1044Y430D02*
X1126Y430D01*
X42Y429D02*
X125Y429D01*
X1044Y429D02*
X1126Y429D01*
X42Y428D02*
X125Y428D01*
X1044Y428D02*
X1126Y428D01*
X43Y427D02*
X125Y427D01*
X1044Y427D02*
X1126Y427D01*
X43Y426D02*
X125Y426D01*
X1044Y426D02*
X1126Y426D01*
X43Y425D02*
X125Y425D01*
X1044Y425D02*
X1126Y425D01*
X43Y424D02*
X124Y424D01*
X1044Y424D02*
X1126Y424D01*
X43Y423D02*
X124Y423D01*
X1044Y423D02*
X1125Y423D01*
X43Y422D02*
X124Y422D01*
X1045Y422D02*
X1125Y422D01*
X44Y421D02*
X124Y421D01*
X1045Y421D02*
X1125Y421D01*
X44Y420D02*
X123Y420D01*
X1045Y420D02*
X1125Y420D01*
X44Y419D02*
X123Y419D01*
X1046Y419D02*
X1124Y419D01*
X45Y418D02*
X123Y418D01*
X1046Y418D02*
X1124Y418D01*
X45Y417D02*
X122Y417D01*
X1046Y417D02*
X1124Y417D01*
X45Y416D02*
X122Y416D01*
X1047Y416D02*
X1123Y416D01*
X46Y415D02*
X122Y415D01*
X1047Y415D02*
X1123Y415D01*
X46Y414D02*
X121Y414D01*
X1048Y414D02*
X1122Y414D01*
X47Y413D02*
X121Y413D01*
X1048Y413D02*
X1122Y413D01*
X47Y412D02*
X120Y412D01*
X1049Y412D02*
X1121Y412D01*
X48Y411D02*
X120Y411D01*
X1049Y411D02*
X1121Y411D01*
X49Y410D02*
X119Y410D01*
X1050Y410D02*
X1120Y410D01*
X49Y409D02*
X118Y409D01*
X1050Y409D02*
X1120Y409D01*
X50Y408D02*
X118Y408D01*
X1051Y408D02*
X1119Y408D01*
X51Y407D02*
X117Y407D01*
X1052Y407D02*
X1118Y407D01*
X51Y406D02*
X116Y406D01*
X1053Y406D02*
X1117Y406D01*
X52Y405D02*
X115Y405D01*
X1053Y405D02*
X1117Y405D01*
X53Y404D02*
X114Y404D01*
X1054Y404D02*
X1116Y404D01*
X54Y403D02*
X114Y403D01*
X1055Y403D02*
X1115Y403D01*
X55Y402D02*
X113Y402D01*
X1056Y402D02*
X1114Y402D01*
X56Y401D02*
X111Y401D01*
X1057Y401D02*
X1113Y401D01*
X57Y400D02*
X110Y400D01*
X1058Y400D02*
X1112Y400D01*
X58Y399D02*
X109Y399D01*
X1060Y399D02*
X1110Y399D01*
X60Y398D02*
X108Y398D01*
X1061Y398D02*
X1109Y398D01*
X61Y397D02*
X106Y397D01*
X1062Y397D02*
X1108Y397D01*
X63Y396D02*
X105Y396D01*
X1064Y396D02*
X1106Y396D01*
X64Y395D02*
X103Y395D01*
X1066Y395D02*
X1104Y395D01*
X66Y394D02*
X101Y394D01*
X1068Y394D02*
X1102Y394D01*
X69Y393D02*
X99Y393D01*
X1070Y393D02*
X1100Y393D01*
X72Y392D02*
X96Y392D01*
X1073Y392D02*
X1097Y392D01*
X75Y391D02*
X92Y391D01*
X1077Y391D02*
X1093Y391D01*
D02*
G04 End of Mask1*
M02*