; NON-PLATED HOLES START AT T1
; THROUGH (PLATED) HOLES START AT T100
M48
INCH
T100C0.035000
T101C0.038000
T102C0.035050
T103C0.030000
T104C0.038194
T105C0.015748
%
T100
X018543Y009488
X018543Y013488
X014543Y013488
X024543Y018488
X021543Y012488
X020543Y012488
X018543Y012488
X022543Y015988
X021543Y009488
X024543Y014488
X022543Y019988
X019543Y012488
X019543Y009488
X020543Y009488
T101
X029543Y000988
X028543Y006993
X029543Y006993
X032543Y006993
X031543Y000988
X028543Y000988
X027543Y006993
X030543Y000988
X030543Y006993
X027543Y000988
X026543Y000988
X032543Y000988
X031543Y006993
X026543Y006993
T102
X010824Y011183
X010824Y007177
X000810Y018193
X000810Y010182
X010824Y013186
X010824Y018193
X000810Y011183
X000810Y013186
X010824Y015189
X010824Y004173
X010824Y009180
X000810Y006176
X010824Y014188
X010824Y006176
X010824Y008179
X010824Y016190
X000810Y004173
X010824Y017192
X000810Y005175
X010824Y010182
X000810Y012185
X000810Y014188
X000810Y007177
X000810Y015189
X010824Y005175
X000810Y016190
X010824Y012185
X000810Y017192
X000810Y008179
X000810Y009180
T103
X020543Y013988
X022543Y014990
X019544Y006988
X022543Y013988
X018043Y014988
X017041Y014988
X020543Y014990
X018543Y006988
T104
X027849Y019735
X032042Y009988
X027849Y020735
X027849Y018695
X030043Y009988
X029043Y009988
X031043Y009988
X027849Y017735
X027849Y014735
X033042Y009988
X027849Y015735
X027849Y013735
X028043Y009988
X027849Y016735
X027849Y012735
T105
X009043Y015488
X006043Y012988
X007043Y019988
X012543Y012988
X009043Y009988
X011543Y008988
X015043Y011488
X015043Y007988
X023543Y007488
X005043Y015488
X015043Y010488
X023043Y010488
X008043Y012988
X005043Y009988
X018543Y016488
X013543Y003488
X009543Y019988
T00
M30
